<svg xmlns="http://www.w3.org/2000/svg" width="217" height="33.712" viewBox="0 0 217 33.712">
  <g id="eh-logo-2022" transform="translate(-2.2 -0.9)">
    <g id="Group_979" data-name="Group 979" transform="translate(2.2 0.9)">
      <path id="Path_2122" data-name="Path 2122" d="M42.141.9A67.209,67.209,0,0,0,21.489,9.859h0A74.036,74.036,0,0,0,6,23.223,73.067,73.067,0,0,1,21.337,34.612,83.616,83.616,0,0,1,36.675,23.223L42.141.9" transform="translate(-0.23 -0.9)" fill="#eeb111"/>
      <path id="Path_2123" data-name="Path 2123" d="M2.2.9,7.819,23.374A82.585,82.585,0,0,1,23.308,10.011h0A63.206,63.206,0,0,0,2.2.9" transform="translate(-2.2 -0.9)" fill="#490e67"/>
    </g>
    <g id="Group_980" data-name="Group 980" transform="translate(55.197 7.582)">
      <path id="Path_2124" data-name="Path 2124" d="M48.185,23.808H37.1V6.8H48.185V9.837H40.593v3.948h6.682v2.885H40.593v4.1h7.593v3.037Z" transform="translate(-37.1 -4.522)" fill="#490e67"/>
      <path id="Path_2125" data-name="Path 2125" d="M61.085,9c2.126,0,3.8,1.215,3.8,4.1v9.567H61.389v-8.2c0-1.519-.456-2.43-1.974-2.43-1.215,0-2.43.759-2.43,3.341v7.289H53.645v-8.2c0-1.519-.456-2.43-1.822-2.43-1.215,0-2.43.911-2.43,3.341v7.289H45.9V9.3h2.885l.456,2.582A3.94,3.94,0,0,1,53.341,9c1.822,0,3.189.759,3.493,2.885A4.361,4.361,0,0,1,61.085,9Z" transform="translate(-32.537 -3.381)" fill="#490e67"/>
      <path id="Path_2126" data-name="Path 2126" d="M62.63,24.586H60.2V5.3h3.493v8.5c.607-2.126,2.278-2.885,4.252-2.885,3.189,0,5.163,2.43,5.163,6.682s-2.126,7.289-5.619,7.289c-2.278,0-3.493-1.063-3.948-2.278Zm1.063-5.467c0,2.43,1.519,3.189,2.733,3.189,1.822,0,3.189-1.367,3.189-4.556,0-2.885-1.063-4.252-3.037-4.252a3.124,3.124,0,0,0-3.037,3.341l.152,2.278Z" transform="translate(-25.122 -5.3)" fill="#490e67"/>
      <path id="Path_2127" data-name="Path 2127" d="M75.367,24.434a10.451,10.451,0,0,1-1.974.3c-1.822,0-3.493-.911-3.493-3.189V5.3h3.493V20.637a1.118,1.118,0,0,0,1.215,1.215A2.965,2.965,0,0,0,75.67,21.7Z" transform="translate(-20.092 -5.3)" fill="#490e67"/>
      <path id="Path_2128" data-name="Path 2128" d="M83.059,18.415l2.885.911c-.607,2.733-3.037,3.645-5.619,3.645-3.8,0-6.226-2.43-6.226-6.833C74.1,11.582,76.53,9,80.478,9c3.645,0,5.467,2.43,5.467,5.77a7.394,7.394,0,0,1-.152,1.822H77.441c0,2.278,1.063,3.8,3.037,3.8A2.415,2.415,0,0,0,83.059,18.415Zm-.3-3.8v-.456a2.233,2.233,0,0,0-2.43-2.43c-1.519,0-2.582,1.215-2.733,3.037h5.163Z" transform="translate(-17.914 -3.381)" fill="#490e67"/>
      <path id="Path_2129" data-name="Path 2129" d="M98.537,9c2.126,0,3.8,1.215,3.8,4.1v9.567H98.841v-8.2c0-1.519-.456-2.43-1.974-2.43-1.215,0-2.43.759-2.43,3.341v7.289H90.945v-8.2c0-1.519-.456-2.43-1.822-2.43-1.215,0-2.43.911-2.43,3.341v7.289H83.2V9.3h2.885l.456,2.582A4.176,4.176,0,0,1,90.641,9c1.822,0,3.189.759,3.493,2.885A4.692,4.692,0,0,1,98.537,9Z" transform="translate(-13.195 -3.381)" fill="#490e67"/>
      <path id="Path_2130" data-name="Path 2130" d="M97.8,23.808V6.8h3.493v6.833h7.137V6.8h3.493V23.808H108.43V16.671h-7.137v7.137Z" transform="translate(-5.624 -4.522)" fill="#490e67"/>
      <path id="Path_2131" data-name="Path 2131" d="M117.559,18.415l2.885.911c-.607,2.733-3.037,3.645-5.619,3.645-3.8,0-6.226-2.43-6.226-6.833,0-4.556,2.43-7.137,6.378-7.137,3.645,0,5.467,2.43,5.467,5.77a7.394,7.394,0,0,1-.152,1.822h-8.352c0,2.278,1.063,3.8,3.037,3.8A2.415,2.415,0,0,0,117.559,18.415Zm-.456-3.8v-.456a2.233,2.233,0,0,0-2.43-2.43c-1.519,0-2.582,1.215-2.733,3.037H117.1Z" transform="translate(-0.024 -3.381)" fill="#490e67"/>
      <path id="Path_2132" data-name="Path 2132" d="M128.337,18.871c0,.911.456,1.215.911,1.215a1.369,1.369,0,0,0,.759-.152v2.582a3.446,3.446,0,0,1-1.974.456c-1.67,0-2.733-.607-3.037-2.126-.607,1.67-2.126,2.278-3.948,2.278-2.43,0-3.948-1.367-3.948-3.645,0-3.037,2.43-4.556,7.593-4.4V13.707c0-1.215-.607-1.974-1.822-1.974s-1.822.759-1.974,1.974l-3.341-.607c.152-2.885,2.582-4.1,5.467-4.1,3.037,0,5.011,1.215,5.011,4.252v5.619ZM124.845,16.9c-3.037,0-4.1.607-4.1,1.974a1.481,1.481,0,0,0,1.67,1.519c1.063,0,2.43-.607,2.43-1.974Z" transform="translate(4.384 -3.381)" fill="#490e67"/>
      <path id="Path_2133" data-name="Path 2133" d="M131.967,24.434a10.45,10.45,0,0,1-1.974.3c-1.822,0-3.493-.911-3.493-3.189V5.3h3.493V20.637a1.118,1.118,0,0,0,1.215,1.215,2.965,2.965,0,0,0,1.063-.152Z" transform="translate(9.258 -5.3)" fill="#490e67"/>
      <path id="Path_2134" data-name="Path 2134" d="M140.022,23.045a9.377,9.377,0,0,1-3.8.759c-2.582,0-4.252-1.215-4.252-4.1V13.022H130V10.289h1.974V7.556l3.493-.456v3.189h3.948v2.733h-3.948V19.1c0,1.367.607,1.974,1.67,1.974a4.519,4.519,0,0,0,2.278-.759Z" transform="translate(11.073 -4.367)" fill="#490e67"/>
      <path id="Path_2135" data-name="Path 2135" d="M141.045,13.8a3.94,3.94,0,0,1,4.1-2.885c2.126,0,3.948,1.215,3.948,4.252v9.415H145.6v-8.2c0-1.519-.456-2.43-1.974-2.43-1.367,0-2.733.759-2.733,3.341v7.289H137.4V5.3h3.493l.152,8.5Z" transform="translate(14.91 -5.3)" fill="#490e67"/>
    </g>
  </g>
</svg>
