<svg xmlns="http://www.w3.org/2000/svg" width="193.233" height="85" viewBox="0 0 193.233 85">
  <g id="empire_anthem_logo" transform="translate(-3.4 -2)">
    <g id="Group_983" data-name="Group 983">
      <g id="Group_982" data-name="Group 982">
        <g id="Group_981" data-name="Group 981" opacity="0.8">
          <path id="Path_2136" data-name="Path 2136" d="M8.2,84.5l-.4-2.2H6l-.4,2.2H4.5L6,76.4H7.6l1.8,8.1ZM6.9,77.1c-.3,1.4-.4,2.9-.7,4.3H7.7A29.707,29.707,0,0,1,6.9,77.1Z" fill="#58595b"/>
          <path id="Path_2137" data-name="Path 2137" d="M12.9,84.5V79.9c0-.4-.2-.8-.6-.8a1.738,1.738,0,0,0-1.1.6v4.8h-1V78.3h1v.6a1.889,1.889,0,0,1,1.3-.7c1,0,1.4.6,1.4,1.5v4.8h-1Z" fill="#58595b"/>
          <path id="Path_2138" data-name="Path 2138" d="M17.1,84.2a1.012,1.012,0,0,0,.7-.4,6.136,6.136,0,0,0,.5-1.1L21,76h.4l2.7,6.4a8.809,8.809,0,0,0,.7,1.4c.2.2.4.4.6.3v.4H21.5v-.4c.4,0,.6-.1.8-.1s.2-.2.2-.4a.6.6,0,0,0-.1-.4.758.758,0,0,0-.2-.4l-.4-.7H19.1c-.2.4-.3.8-.4,1a4.076,4.076,0,0,0-.2.7c0,.2.1.3.4.4a1.268,1.268,0,0,0,.6.1v.3H17C17.1,84.5,17.1,84.2,17.1,84.2Zm4.5-2.6-1.1-2.8h-.1l-1.1,2.8Z" fill="#58595b"/>
          <path id="Path_2139" data-name="Path 2139" d="M25.8,84.2a.588.588,0,0,0,.5-.2.764.764,0,0,0,.2-.5V79.9c0-.3,0-.4-.1-.5a.764.764,0,0,0-.5-.2v-.3h2.3v.9a2.336,2.336,0,0,1,.7-.7,1.689,1.689,0,0,1,1-.3,1.9,1.9,0,0,1,1.2.4,2.108,2.108,0,0,1,.4,1.4v2.9a.588.588,0,0,0,.2.5.758.758,0,0,0,.4.2v.2H29.2v-.3c.2,0,.4-.1.4-.2a.749.749,0,0,0,.1-.5v-3c0-.3,0-.5-.1-.6a.51.51,0,0,0-.5-.4.864.864,0,0,0-.6.3c-.2.2-.4.3-.4.4v3.2c0,.3,0,.4.1.5a.758.758,0,0,0,.4.2v.3H25.7l.1-.1Z" fill="#58595b"/>
          <path id="Path_2140" data-name="Path 2140" d="M32.6,79.5v-.4c.1-.1.3-.2.4-.4s.4-.4.6-.6a11.318,11.318,0,0,0,1-1.3H35v2h1.1v.5H35V83c0,.2,0,.4.1.4.1.2.2.3.4.3a.52.52,0,0,0,.4-.2c.1-.1.2-.3.4-.4l.3.2c-.2.4-.4.6-.5.8a1.656,1.656,0,0,1-1.3.5,2.354,2.354,0,0,1-.8-.2,1.149,1.149,0,0,1-.6-1.1V79.4l-.8.1Z" fill="#58595b"/>
          <path id="Path_2141" data-name="Path 2141" d="M36.6,84.2a.588.588,0,0,0,.5-.2.764.764,0,0,0,.2-.5V77.3c0-.3,0-.4-.1-.5a.764.764,0,0,0-.5-.2v-.3h2.4v3.4a5.008,5.008,0,0,1,.8-.7,1.689,1.689,0,0,1,1-.3,1.82,1.82,0,0,1,1.1.4,2.108,2.108,0,0,1,.4,1.4v2.9a.588.588,0,0,0,.2.5.758.758,0,0,0,.4.2v.3H40.1v-.3c.2,0,.4-.1.4-.2a.749.749,0,0,0,.1-.5v-3c0-.3,0-.5-.1-.6a.51.51,0,0,0-.5-.4.864.864,0,0,0-.6.3,1.2,1.2,0,0,0-.4.4v3.2c0,.3,0,.4.1.5a.758.758,0,0,0,.4.2v.3H36.6v-.1Z" fill="#58595b"/>
          <path id="Path_2142" data-name="Path 2142" d="M44.2,79.5a2.5,2.5,0,0,1,1.8-.8,1.5,1.5,0,0,1,1.1.4,1.765,1.765,0,0,1,.8.9,1.8,1.8,0,0,1,.3,1.1v.4H45a2.133,2.133,0,0,0,.3,1.2c.3.7.6,1,1.2,1a1.33,1.33,0,0,0,.8-.3,2.651,2.651,0,0,0,.6-.5l.3.2a3.23,3.23,0,0,1-1.3,1.3,2.279,2.279,0,0,1-1.1.3,3.1,3.1,0,0,1-1.7-.7c-.6-.4-.8-1.2-.8-2.3A4.874,4.874,0,0,1,44.2,79.5ZM46.8,81a4.872,4.872,0,0,0-.2-1.5.622.622,0,0,0-.6-.4c-.4,0-.5.2-.6.5a5.212,5.212,0,0,0-.2,1.4Z" fill="#58595b"/>
          <path id="Path_2143" data-name="Path 2143" d="M48.7,84.2c.3,0,.4-.1.4-.2.2-.1.2-.3.2-.6V79.8a.588.588,0,0,0-.2-.5,1.034,1.034,0,0,0-.4-.1v-.3H51v.9a3.394,3.394,0,0,1,.6-.6,1.666,1.666,0,0,1,1.1-.4,1.246,1.246,0,0,1,1.1.4c.2.1.3.4.4.6h.1c.3-.3.4-.5.7-.6a1.666,1.666,0,0,1,1.1-.4,2.1,2.1,0,0,1,1.1.4,1.578,1.578,0,0,1,.5,1.3v3.1a.588.588,0,0,0,.2.5c.1.1.3.1.4.2v.2H55.4v-.3c.3,0,.4-.1.4-.2a.749.749,0,0,0,.1-.5v-3a1.165,1.165,0,0,0-.2-.7.55.55,0,0,0-.5-.3,1.329,1.329,0,0,0-.7.3,1.2,1.2,0,0,0-.4.4v3.2c0,.3,0,.4.1.5a.758.758,0,0,0,.4.2v.3H51.8v-.3c.2,0,.4-.1.4-.2a.764.764,0,0,0,.2-.5v-3a1.285,1.285,0,0,0-.1-.7.55.55,0,0,0-.5-.3,1.329,1.329,0,0,0-.7.3.5.5,0,0,1-.1.5v3.2c0,.3,0,.4.1.5a.758.758,0,0,0,.4.2v.4H48.6l.1-.3Z" fill="#58595b"/>
          <path id="Path_2144" data-name="Path 2144" d="M63.8,84.6a1.929,1.929,0,0,1-2.1-2.2v-4a1.972,1.972,0,0,1,2.1-2.2c1.2,0,2.1.6,2.1,1.8v1H64.8v-.5c0-.7-.1-1.4-1-1.4a1,1,0,0,0-1.1,1.1v4c0,.7.2,1.3,1.1,1.3,1.2,0,1.1-1.1,1.1-2H66v.9A1.958,1.958,0,0,1,63.8,84.6Z" fill="#58595b"/>
          <path id="Path_2145" data-name="Path 2145" d="M69.1,84.6a1.736,1.736,0,0,1-1.9-1.9V79.9a1.708,1.708,0,0,1,1.9-1.8A1.664,1.664,0,0,1,71,79.9v2.8A1.736,1.736,0,0,1,69.1,84.6ZM70,80a1,1,0,0,0-1-1,.945.945,0,0,0-1,1v2.8a1,1,0,0,0,2,0Z" fill="#58595b"/>
          <path id="Path_2146" data-name="Path 2146" d="M77.3,84.5V79.9c0-.4-.1-.8-.6-.8a1.149,1.149,0,0,0-.9.6v4.7H74.7V79.8c0-.4-.2-.7-.6-.7s-.6.3-.9.5v4.8H72.1V78.2h1v.5a1.76,1.76,0,0,1,1.3-.6,1.084,1.084,0,0,1,1.1.8,1.723,1.723,0,0,1,1.4-.8c1,0,1.2.7,1.2,1.6v4.7h-.8Z" fill="#58595b"/>
          <path id="Path_2147" data-name="Path 2147" d="M82,84.6a2.513,2.513,0,0,1-1.4-.6v2.9H79.5V78.2h1v.5a1.974,1.974,0,0,1,1.4-.6c1,0,1.4.8,1.4,1.7v3C83.4,83.7,83,84.6,82,84.6Zm.4-4.6c0-.4-.2-1-.8-1a2.22,2.22,0,0,0-1.1.5v3.6a1.606,1.606,0,0,0,1.1.5c.7,0,.8-.4.8-1.1Z" fill="#58595b"/>
          <path id="Path_2148" data-name="Path 2148" d="M87.3,84.5V84a1.76,1.76,0,0,1-1.3.6A1.472,1.472,0,0,1,84.4,83v-.3c0-1.6,1.6-1.9,2.8-2.1v-.8a.817.817,0,0,0-.8-.9c-.8,0-.9.5-.9,1.1h-1v-.2A1.633,1.633,0,0,1,86.3,78c1.1,0,1.8.5,1.8,1.7v4.6h-.8Zm-.1-3.2c-.8.1-1.8.4-1.8,1.3v.3a.736.736,0,0,0,.8.8,2.22,2.22,0,0,0,1.1-.5V81.3Z" fill="#58595b"/>
          <path id="Path_2149" data-name="Path 2149" d="M92.2,84.5V79.9c0-.4-.2-.8-.6-.8a1.738,1.738,0,0,0-1.1.6v4.8H89.4V78.3h1v.6a1.889,1.889,0,0,1,1.3-.7c1,0,1.4.6,1.4,1.5v4.8h-.9Z" fill="#58595b"/>
          <path id="Path_2150" data-name="Path 2150" d="M96.5,85.2c-.3,1.1-.6,1.8-1.9,1.8a.749.749,0,0,1-.5-.1v-.8c.2,0,.3.1.4.1.6,0,.9-.4,1-1l.2-.8-1.6-6.1h1.1c.4,1.7.8,3.3,1.1,5.1.3-1.7.7-3.3,1.1-5.1h1.1Z" fill="#58595b"/>
        </g>
      </g>
    </g>
    <g id="Group_984" data-name="Group 984">
      <path id="Path_2151" data-name="Path 2151" d="M3.6,62v3.3H194.9L196,62Z" fill="#0072bc"/>
    </g>
    <path id="Path_2152" data-name="Path 2152" d="M158.4,20a9.6,9.6,0,1,1-9.6-9.6A9.6,9.6,0,0,1,158.4,20Z" fill="#fff"/>
    <path id="Path_2153" data-name="Path 2153" d="M172.4,5.8c8.7,3.2,16,4.2,21.4,0,3.9,13.3-5.7,29.3-10.4,29.3-4.5.1-15.9-16.4-11.6-27.9C172.5,5.3,172.4,5.8,172.4,5.8Z" fill="#fff"/>
    <path id="Path_2154" data-name="Path 2154" d="M69,41.6c0,.2-1.6,8.9-1.6,9.1h2.3c2.2,0,3.6-1.2,3.6-3.1A1.723,1.723,0,0,0,72,45.8l-.4-.1.4-.2a2.2,2.2,0,0,0,1.7-2.1c0-1.2-1.1-2-2.9-2C70.7,41.6,69.2,41.6,69,41.6Zm.4,3.7.5-2.8h.9c1.4,0,1.7.7,1.7,1.3,0,.8-.4,1.7-2.2,1.7h-.9Zm-.8,4.4.6-3.4h1c1.2,0,1.8.4,1.8,1.4,0,1.4-.9,2.2-2.5,2.2h-1Z"/>
    <path id="Path_2155" data-name="Path 2155" d="M77.6,50.9H73.9l1.2-7.2h1.1L75,49.9h2.6Z"/>
    <path id="Path_2156" data-name="Path 2156" d="M84.2,48.1c-.4,1.9-1.5,3-3.2,3a2.109,2.109,0,0,1-2.2-2.4,3.085,3.085,0,0,1,.1-.9l.7-4.1h1.1l-.8,4.2a2.2,2.2,0,0,0-.1.8c0,1,.4,1.4,1.4,1.4,1.1,0,1.8-.7,2-2.2l.8-4.2h1Z"/>
    <path id="Path_2157" data-name="Path 2157" d="M90.1,44.6H87.4l-.4,2h1.8l-.2.9H86.8L86.4,50H89l-.2.9H85.1l1.3-7.2h3.7Z"/>
    <path id="Path_2158" data-name="Path 2158" d="M93.3,42.4a5.967,5.967,0,0,0-2.4,4.8c0,2.2,1.3,3.7,3.3,3.7a3.936,3.936,0,0,0,2.5-.8s-.1-.7-.2-1.1a3.964,3.964,0,0,1-2.2.8A2.347,2.347,0,0,1,92,47.2c0-2.5,1.7-4.6,3.8-4.6a5.4,5.4,0,0,1,1.8.6c.1-.2.4-.9.5-1.1a3.936,3.936,0,0,0-2.1-.6A5.43,5.43,0,0,0,93.3,42.4Z"/>
    <path id="Path_2159" data-name="Path 2159" d="M103.6,45.4a1.712,1.712,0,0,1-1.4,1.8h0a1.252,1.252,0,0,1,.8,1.3,1.952,1.952,0,0,1-.1.7l-.3,1.6h-1.1a22.3,22.3,0,0,0,.4-2.3c0-.6-.4-.9-1.3-.9h-.8l-.5,3.2H98.2l1.3-7.2H101C102.7,43.7,103.6,44.4,103.6,45.4Zm-1.1.1c0-.6-.5-1-1.6-1h-.6l-.4,2.3h.6C101.9,46.8,102.5,46.4,102.5,45.5Z"/>
    <path id="Path_2160" data-name="Path 2160" d="M110.2,49.3a4.1,4.1,0,0,1-3.2,1.8c-1.6,0-2.7-1.3-2.7-3.2a5.2,5.2,0,0,1,.7-2.5,3.957,3.957,0,0,1,3.2-1.8,2.934,2.934,0,0,1,1.7.6,3.25,3.25,0,0,1,1.1,2.5A4.956,4.956,0,0,1,110.2,49.3Zm-2-4.8a2.386,2.386,0,0,0-1.8,1,3.777,3.777,0,0,0-.9,2.4c0,1.3.7,2.2,1.8,2.2a2.386,2.386,0,0,0,1.8-1,3.946,3.946,0,0,0,1-2.5A2.084,2.084,0,0,0,108.2,44.5Z"/>
    <path id="Path_2161" data-name="Path 2161" d="M115.5,45.2a1.936,1.936,0,0,0-1.3-.6,1.049,1.049,0,0,0-1.1,1.1c0,.4.3.6.7.9l.5.3a2.024,2.024,0,0,1,1.2,1.8,2.393,2.393,0,0,1-2.5,2.4,1.938,1.938,0,0,1-1.9-1.1l.9-.6a1.541,1.541,0,0,0,1.3.9,1.184,1.184,0,0,0,1.2-1.3,1.1,1.1,0,0,0-.6-1l-.5-.3a1.785,1.785,0,0,1-1.2-1.8,2.163,2.163,0,0,1,2.3-2.1,2.452,2.452,0,0,1,1.6.6Z"/>
    <path id="Path_2162" data-name="Path 2162" d="M120.7,45.2a1.936,1.936,0,0,0-1.3-.6,1.049,1.049,0,0,0-1.1,1.1c0,.4.3.6.7.9l.5.3a2.024,2.024,0,0,1,1.2,1.8,2.393,2.393,0,0,1-2.5,2.4,1.938,1.938,0,0,1-1.9-1.1l.9-.6a1.541,1.541,0,0,0,1.3.9,1.184,1.184,0,0,0,1.2-1.3,1.1,1.1,0,0,0-.6-1l-.5-.3a1.785,1.785,0,0,1-1.2-1.8,2.195,2.195,0,0,1,2.4-2.1,2.452,2.452,0,0,1,1.6.6Z"/>
    <path id="Path_2163" data-name="Path 2163" d="M128.5,41.6c0,.2-1.6,8.9-1.6,9.1h2.3c2.2,0,3.6-1.2,3.6-3.1a1.723,1.723,0,0,0-1.3-1.8l-.4-.1.4-.2a2.2,2.2,0,0,0,1.7-2.1c0-1.2-1.1-2-2.9-2C130.2,41.6,128.7,41.6,128.5,41.6Zm.4,3.7.5-2.8h.9c1.4,0,1.7.7,1.7,1.3,0,.8-.4,1.7-2.2,1.7h-.9Zm-.8,4.4.6-3.4h1c1.2,0,1.8.4,1.8,1.4,0,1.4-.9,2.2-2.5,2.2h-1v-.2Z"/>
    <path id="Path_2164" data-name="Path 2164" d="M137.4,50.9h-3.7l1.2-7.2H136l-1.1,6.2h2.6Z"/>
    <path id="Path_2165" data-name="Path 2165" d="M143.9,48.1c-.4,1.9-1.5,3-3.2,3a2.109,2.109,0,0,1-2.2-2.4,3.085,3.085,0,0,1,.1-.9l.7-4.1h1.1l-.8,4.2a2.2,2.2,0,0,0-.1.8c0,1,.4,1.4,1.4,1.4,1.1,0,1.8-.7,2-2.2l.8-4.2h1.1Z"/>
    <path id="Path_2166" data-name="Path 2166" d="M149.9,44.6h-2.6l-.4,2h1.8l-.2.9h-1.8l-.4,2.5h2.6l-.2.9H145l1.3-7.2H150Z"/>
    <path id="Path_2167" data-name="Path 2167" d="M152,44.1a2.289,2.289,0,0,0,1.6,2.3l.7.4a1.615,1.615,0,0,1,.9,1.4,1.68,1.68,0,0,1-1.8,1.8,1.848,1.848,0,0,1-1.7-1.1c-.2.1-.8.6-1,.7a2.394,2.394,0,0,0,2.4,1.4,3,3,0,0,0,3.2-3,2.641,2.641,0,0,0-1.6-2.4l-.7-.4c-.5-.3-1-.5-1-1.2a1.5,1.5,0,0,1,1.6-1.5,2.668,2.668,0,0,1,1.7.8c.1-.2.6-1.1.6-1.1a2.986,2.986,0,0,0-2-.6A2.537,2.537,0,0,0,152,44.1Z"/>
    <path id="Path_2168" data-name="Path 2168" d="M162.5,50.9h-1l.6-3.3h-2.9l-.6,3.3h-1.1l1.2-7.2h1.1l-.5,3h2.9l.5-3h1.1Z"/>
    <path id="Path_2169" data-name="Path 2169" d="M165.7,50.9h-1.1l1.2-7.2h1.1Z"/>
    <path id="Path_2170" data-name="Path 2170" d="M172.4,44.6h-2.7l-.4,2h1.8l-.2.9h-1.8l-.4,2.5h2.6l-.2.9h-3.7l1.3-7.2h3.7Z"/>
    <path id="Path_2171" data-name="Path 2171" d="M176.4,50.9h-3.7l1.2-7.2H175l-1.1,6.2h2.6Z"/>
    <path id="Path_2172" data-name="Path 2172" d="M183.2,46.8a3.806,3.806,0,0,1-4.1,4h-1.7l1.3-7.2h1.4A3.074,3.074,0,0,1,183.2,46.8Zm-1-.1a2.051,2.051,0,0,0-2.1-2.1h-.5l-1,5.4h.6A2.976,2.976,0,0,0,182.2,46.7Z"/>
    <path id="Path_2173" data-name="Path 2173" d="M8.4,7.8c.5-2.9,0-3.8-4.3-4.4l.2-.9H28l-.8,6.1H25.6c0-2.6.3-4.2-3.9-4.2H16.4c-2.9,0-3.2.6-3.7,3.3L11,17.7h6.4c4.1,0,4.8-1.8,5.6-4.2h1.1L22.3,23.9H21.2c0-2.9.1-4.3-4.1-4.3H10.6l-2,11.8c-.5,2.9-.1,2.9,3.6,2.9h5.4c3.4,0,3.9-1.1,5.3-4.8h1.5l-1.6,6.8H3.4Z"/>
    <path id="Path_2174" data-name="Path 2174" d="M29.8,17.8c.5-3-1.8-3.2-3.2-3.3l.2-.9,7.9-1.2-1.1,6.1h.1c.9-1.8,4.2-6.1,8.3-6.1,4.7,0,5.5,2.5,4.9,6.1H47c1.1-1.7,3.9-6.1,8.4-6.1,6,0,5.3,4,4.6,8L57.2,36.3H53.3l2.6-15.1c.6-3.7,1.1-6.3-2.3-6.3-2.6,0-6.8,4.6-7.7,9.3L43.7,36.4H39.8l2.9-16.2c.4-2.7.9-5.3-2.4-5.3-3.2,0-7.1,5.4-7.8,9.5L30.4,36.3H26.5Z"/>
    <path id="Path_2175" data-name="Path 2175" d="M67.8,22.4c.6-3.7,3.5-8,6.9-8,4.6,0,4.4,6.8,3.8,10.3C77.8,28.6,75.9,35,71.3,35c-4.4,0-4.6-5.6-4.1-8.9ZM59.5,47h3.9l2.5-14.1H66c.4,1.7,2.1,3.9,5.6,3.9,6.5,0,9.9-5.8,11.1-12.3,1.2-7-.7-12.1-7.1-12.1a8.378,8.378,0,0,0-6.7,3.8h-.1l.7-3.8-8.1,1.1-.2.9c1.4.2,3.9.2,3.3,3.3Z"/>
    <path id="Path_2176" data-name="Path 2176" d="M87,17.8c.5-3-1.8-3.2-3.2-3.3l.2-.9,7.8-1.2L87.6,36.3H83.7Zm1.1-13A3.5,3.5,0,0,1,91.4,2a2.27,2.27,0,0,1,2.3,2.8,3.4,3.4,0,0,1-3.3,2.8A2.315,2.315,0,0,1,88.1,4.8Z"/>
    <path id="Path_2177" data-name="Path 2177" d="M96.4,18c.5-3.2-1.8-3.3-3.2-3.4l.2-.9,7.9-1.2-1.1,6h.1c1.1-2.1,3-6,7.7-6,.2,0,.3,0,.4.1l-.7,4.2a4.707,4.707,0,0,0-1.6-.4c-4.9,0-6.4,4.9-7,8L97,36.4H93.1Z"/>
    <path id="Path_2178" data-name="Path 2178" d="M121.3,20.2H111c.4-1.7,2-5.8,6.6-5.8,3,0,4.3,2.5,3.8,5.4Zm1.2,14.2a15.061,15.061,0,0,1-3.7.6c-7,0-9.2-7.1-8.4-11.9l.2-1.1h14.7l.2-.8c1.1-6-2.2-8.8-6.9-8.8-7.4,0-10.9,4.3-12.1,11.5-1.5,8.4,2,13,9.4,13a20,20,0,0,0,6.4-.9Z"/>
    <g id="Group_985" data-name="Group 985">
      <path id="Path_2179" data-name="Path 2179" d="M158.9,33.7a1.3,1.3,0,1,0,0,2.6,1.324,1.324,0,0,0,1.3-1.3A1.206,1.206,0,0,0,158.9,33.7Z" fill="none" stroke="#0072bc" stroke-width="0.17"/>
      <path id="Path_2180" data-name="Path 2180" d="M158.9,35" fill="#0060a9" stroke="#000" stroke-width="0.055"/>
      <path id="Path_2181" data-name="Path 2181" d="M158.6,35.7h-.2V34.2h.7c.3,0,.4.1.4.4a.52.52,0,0,1-.2.4c.1,0,.2.1.2.3v.3c0,.1,0,.1.1.2h-.3v-.4c0-.1,0-.3-.3-.3h-.4v.6Zm0-.8h.4c.2,0,.3,0,.3-.3s-.2-.3-.3-.3h-.5l.1.6Z" fill="#0072bc"/>
    </g>
    <g id="Group_986" data-name="Group 986">
      <path id="Path_2182" data-name="Path 2182" d="M189.8,33.8a1.3,1.3,0,1,0,0,2.6,1.261,1.261,0,0,0,1.3-1.3A1.324,1.324,0,0,0,189.8,33.8Z" fill="none" stroke="#0072bc" stroke-width="0.17"/>
      <path id="Path_2183" data-name="Path 2183" d="M189.4,35.9h-.2V34.5h.7c.3,0,.4.1.4.4a.52.52,0,0,1-.2.4c.1,0,.2.1.2.3v.3c0,.1,0,.1.1.2h-.3v-.4c0-.1,0-.3-.3-.3h-.4v.5Zm0-.8h.4c.2,0,.3,0,.3-.3s-.2-.3-.3-.3h-.5l.1.6Z" fill="#0072bc"/>
    </g>
    <path id="Path_2184" data-name="Path 2184" d="M156.2,12.4V3.7H141.3v8.6h-9.4V27.1h9.3v9.1h14.9v-9h9V12.4Zm-7.6,16.8a9.2,9.2,0,1,1,9.2-9.2A9.052,9.052,0,0,1,148.6,29.2Z" fill="#0072bc"/>
    <path id="Path_2185" data-name="Path 2185" d="M146.5,12.5a2.472,2.472,0,0,0,.4,2.4h-4.1C143,13.9,145.9,12.4,146.5,12.5Z" fill="#0072bc"/>
    <path id="Path_2186" data-name="Path 2186" d="M151,12.5a2.472,2.472,0,0,1-.4,2.4h4.1C154.4,13.9,151.6,12.4,151,12.5Z" fill="#0072bc"/>
    <path id="Path_2187" data-name="Path 2187" d="M145.7,18.4c.6,0,.3.8.3.8.2-.4-3.3,5.5-3.3,5.5a6.555,6.555,0,0,1-1.6-6.8Z" fill="#0072bc"/>
    <path id="Path_2188" data-name="Path 2188" d="M151.7,18.5c-.6,0-.3.8-.3.8-.2-.4,3.2,5.9,3.2,5.9s3-3,1.8-6.9Z" fill="#0072bc"/>
    <path id="Path_2189" data-name="Path 2189" d="M157.3,16.2h-6.9c-2.3-.3-.5-2.5-.4-3,.1-.4,0-1.4-1.3-1.3a1.091,1.091,0,0,0-1,1.2c.3,1.1,1.6,2.5-.4,3h-7.6l-.3.4,5.4.4c1.1.1,2.5.4,2.6,1.3s-.4,1.6-1.1,2.7l-4,6.7.5.4,5-7.2a.718.718,0,0,1,1.3-.1l4.8,7.4.5-.4-3.9-6.8a5.3,5.3,0,0,1-1-2.7c0-1,1.6-1.1,2.6-1.2l5.2-.4Z" fill="#0072bc"/>
    <path id="Path_2190" data-name="Path 2190" d="M151.8,27.3c-1.1,1-5.2,1.1-6.4-.2l3.3-4.7Z" fill="#0072bc"/>
    <path id="Path_2191" data-name="Path 2191" d="M194.4,4.1s-11.6,6.1-22.4-.4c-8.2,14.7,5.9,31.2,11.1,32.9C190.7,33.5,201.3,17.7,194.4,4.1ZM183.2,33.7c-3.2-1.2-14.6-12.1-10.1-26.6,11.9,4.6,20.2,0,20.2,0C196.6,16.9,191.1,29.5,183.2,33.7Z" fill="#0072bc"/>
    <path id="Path_2192" data-name="Path 2192" d="M181.7,12.6c.2-.1.4,0,.5,0,0,0,.1.3,0,.3s-.3-.2-.5-.3Z" fill="#0060a9"/>
    <path id="Path_2193" data-name="Path 2193" d="M192.3,8.5s-7.7,4.1-18.2.1c-2.8,13.8,6.3,22.1,9,23.7C190,27.5,194.7,18.1,192.3,8.5Zm-9.9,21.6c0,.1-.1.1-.2.1a1.645,1.645,0,0,1-.4-1.3,1.057,1.057,0,0,1,.6-.7h.1c.1,1.1-.1.9-.3,1.3C182.3,29.5,182.5,29.8,182.4,30.1Zm1.4-2.5s-.1,2.9-.2,3.2a.428.428,0,0,1-.7-.1c-.1-.3-.1-3.5-.1-3.5a.367.367,0,0,1,.1-.3c.1-.1.3,0,.4,0C183.4,27,183.9,27.1,183.8,27.6Zm.2.9c0-.3.1-.8.1-1.1,0,.6.1-.4-.2-.4-.3-.1-2.3-1.2-2.3-1.2a1.039,1.039,0,0,1-.4-1.2,1.675,1.675,0,0,1,1.4-1.1v1.3l-.2.1c-.2.6,2.1.9,2.7,1.9C185.6,27.7,184,28.8,184,28.5Zm-1.2-5.3c0-.3.1-.3.3-.4.2,0,.8-.1.9,0,0,0,.2,2.6-.1,2.6a1.591,1.591,0,0,1-1-.5A10.285,10.285,0,0,1,182.8,23.2Zm2.9.6c-.4.4-1.6,1-1.5.7a4.121,4.121,0,0,1,.1-1.2c0-.1.4-.4.2-.5-.5-.4-1.3,0-1.9-.2a2.173,2.173,0,0,1-1.6-1.1,1.517,1.517,0,0,1-.3-1.3.713.713,0,0,1,.3-.6c.2-.2.6-.7.7-.5a18.879,18.879,0,0,1,.6,1.8c.1.1.2.2.3.2.9.4,2.1.2,2.9.6A1.411,1.411,0,0,1,185.7,23.8Zm-3.8-5.3.4-.2.2-.4a3.787,3.787,0,0,1,1.5,0c.3.1.3,0,.3.3.1.7.1,2.9.1,2.9a3.42,3.42,0,0,1-1.1-.1s-.4-.1-.4-.2a1.546,1.546,0,0,1-.3-.6,6.377,6.377,0,0,0-.2-.7C181.9,19,181.8,18.7,181.9,18.5Zm2.6,2.3V18.6l.3-.1c.3-.4.1-.4-.2-.6-.4-.4-3.1-.1-3.9-.5.4.2-2.8-1.2-2.5-3.2a2.934,2.934,0,0,1,1.7-2.2,3.176,3.176,0,0,1,1.9.1c.4.2.4.1.7.4.2.1.4.4.6.6.1.1.3.3.2.3-.4.3-1.3.1-2,.1.4.1.6.2,1,.3.2,0,.7.1.6.3,0,.1-.6.3-.7.3a5.484,5.484,0,0,1-1.3,0c-.4-.2-1.1.1-.5.6,1.4,1.5,4.1.8,5.4,1.6C187.9,17.8,186.4,20.1,184.5,20.8Zm2.4-7.5-2.4,2.1-.1.4a16.6,16.6,0,0,1-2.2-.3V14.4l.2-.1a.769.769,0,0,1,.3-.2.758.758,0,0,0,.4-.2.31.31,0,0,0,.1-.2l1,.3h0s-.8-.3-.9-.5.3-.1.4-.2-.9-1.1-1-1.1c-.2-.1-.2-.5-.1-.7.1-.3.5-.2.5-.2l1.6.7c.3.3-.1,1.1,0,1.3s0,.2.3.2c.2.1.6-.5,1-.9C186.1,12.4,187.1,12.6,186.9,13.3Z" fill="#0072bc"/>
  </g>
</svg>
