<svg xmlns="http://www.w3.org/2000/svg" width="260.56" height="67.125" viewBox="0 0 260.56 67.125">
  <g id="hf-logo-flat" transform="translate(-0.33 -0.545)">
    <path id="Path_2194" data-name="Path 2194" d="M38.29,44.9c2.76-9.8,2.45-15.74-2.21-23.86-6-10.39-22.83-13.61-31-18C2.13,1.47,1.21.27.5.6a45.17,45.17,0,0,0,8,7.74C12.16,11,30,23.88,38.29,44.9Z" fill="#81bd41"/>
    <path id="Path_2195" data-name="Path 2195" d="M38.82,63.32c1.72-5.2-.32-10.77-1.35-13.58A106.689,106.689,0,0,0,8.29,8.24l.19.14A45.17,45.17,0,0,1,.48.64S.42.64.4.72C-.11,2.04,2.28,3.66,3.83,9.6c3,11.45-.73,23.1,22.76,33.81,9.85,4.49,11.26,11.25,9.67,16.4A10.549,10.549,0,0,1,38,61.72a10.306,10.306,0,0,1,.86,1.6" fill="#81bd41"/>
    <path id="Path_2196" data-name="Path 2196" d="M189.45,50.52h7V24.28h-7Zm-.1-34h7.14V11.14h-7.14Z" fill="#323438"/>
    <path id="Path_2197" data-name="Path 2197" d="M216.59,32.34c0,4.83,3.11,6.9,8.16,7.35l4.4.4c2.2.21,2.95,1.11,2.95,2.42,0,2-2.52,2.72-4.94,2.72-2.14,0-6.34-.3-8.65-2.47l-2.39,5.66c3.54,2.39,6.53,2.41,10.94,2.41,6.6,0,11.86-2.78,11.86-8.57,0-4.43-2.79-7.2-8.32-7.71l-4.4-.4c-2.47-.2-2.9-1.31-2.9-2.27,0-1.3,1.18-2.51,4-2.51,2.42,0,5.55.41,7.15,1.77L237,26.21c-3.28-1.81-5.25-2.24-9.59-2.24-5.69,0-10.79,2.93-10.79,8.37" fill="#323438"/>
    <path id="Path_2198" data-name="Path 2198" d="M242.72,15.24V25h-3v5h3V43c0,3.73,2.41,7.5,8.1,7.5h3.81V45h-2.52a2.119,2.119,0,0,1-2.41-2.37V30h4.93V25H249.7V15.24Z" fill="#323438"/>
    <path id="Path_2199" data-name="Path 2199" d="M215.42,24a9.891,9.891,0,0,0-7,2.82V24.28h-6.83V50.52h7V34.71c0-3.33,2.33-4.93,4.48-4.93a17.467,17.467,0,0,1,2.22.19l1.61-6h-1.45" fill="#323438"/>
    <path id="Path_2200" data-name="Path 2200" d="M182.16,11.1c-5.7,0-8.17,3.78-8.17,7.51V25H171.2v5H174V50.5h7V30h5.16V25H181V19a2.13,2.13,0,0,1,2.42-2.37h2.74V11.1Z" fill="#323438"/>
    <path id="Path_2201" data-name="Path 2201" d="M51,50.52V33.78c0-4.63,2.48-7.1,7.11-7.14s6.91,2.45,7,7.14V50.52h3.37V33.31a9.4,9.4,0,0,0-2.67-7,10.24,10.24,0,0,0-7.32-2.56,10.2,10.2,0,0,0-7.44,2.81V10.76H47.67V50.52Z" fill="#323438"/>
    <path id="Path_2202" data-name="Path 2202" d="M114.79,50.52h3.36V32.28A7.791,7.791,0,0,0,115.57,26c-1.75-1.47-4.37-2.21-7.89-2.21-4.33,0-7.22.91-9.5,4l-.18.23L100.48,30l.19-.25c1.65-2.23,3.34-3,7-3.06,5.33.06,7.06,2,7.11,5.85v2.71h-8.2a11,11,0,0,0-6.91,2,6.81,6.81,0,0,0-2.54,5.59,7.89,7.89,0,0,0,2,5.45c1.76,1.74,4,2.39,8,2.38,3.45,0,5.6-.61,7.71-2.44Zm-1.37-4.69c-1.82,1.65-3.95,1.85-6.34,1.85-4.76,0-6.54-1.77-6.57-4.93s2-4.71,6.41-4.75h7.87v2.93c0,2.26-.49,4.12-1.37,4.9" fill="#323438"/>
    <path id="Path_2203" data-name="Path 2203" d="M150.71,50.52V33.7c0-4.62,2.49-7.1,7.1-7.13s6.92,2.44,6.95,7.13V50.52h3.38V33.24a9.478,9.478,0,0,0-2.67-7,11.47,11.47,0,0,0-14.76.26V10.77h-3.38V50.52Z" fill="#323438"/>
    <path id="Path_2204" data-name="Path 2204" d="M143,47.63h-1.32c-2.66,0-3.69-1.29-3.74-3.83V27.31h5.94V24.76H137.9V13.24h-3.36V24.76h-3.61v2.55h3.61V43.75a7.112,7.112,0,0,0,1.68,4.88,6.441,6.441,0,0,0,4.92,1.93H143Z" fill="#323438"/>
    <path id="Path_2205" data-name="Path 2205" d="M90.83,44.78h-.06A8.78,8.78,0,0,1,84,47.57c-5.38,0-8.13-3.24-8.25-9.49H94V36.55c0-4-1-7.2-2.85-9.41a10,10,0,0,0-8-3.4,9.72,9.72,0,0,0-8,3.57c-1.86,2.31-2.85,5.68-2.85,9.88s1,7.69,2.94,10,4.84,3.46,8.53,3.46a12.06,12.06,0,0,0,9-3.37ZM76.63,30.86a7.25,7.25,0,0,1,13.07,0,10.391,10.391,0,0,1,.88,4.41H75.74a12.768,12.768,0,0,1,.89-4.42" fill="#323438"/>
    <path id="Path_2206" data-name="Path 2206" d="M127.47,10.77h-3.38V50.53h3.38Z" fill="#323438"/>
    <path id="Path_2207" data-name="Path 2207" d="M258.24,14a2.8,2.8,0,0,1,1.3.34,2.373,2.373,0,0,1,1,1,2.6,2.6,0,0,1,.35,1.32,2.693,2.693,0,0,1-.34,1.31,2.41,2.41,0,0,1-1,1,2.55,2.55,0,0,1-1.31.35,2.6,2.6,0,0,1-1.31-.35,2.469,2.469,0,0,1-1-1,2.71,2.71,0,0,1-.35-1.31,2.618,2.618,0,0,1,.36-1.32,2.373,2.373,0,0,1,1-1,2.831,2.831,0,0,1,1.3-.34Zm0,.44a2.229,2.229,0,0,0-1.08.28,2,2,0,0,0-.82.82,2.192,2.192,0,0,0-.3,1.1,2.251,2.251,0,0,0,.29,1.09,2.061,2.061,0,0,0,.82.81,2.149,2.149,0,0,0,1.09.29,2.119,2.119,0,0,0,1.09-.29,2.061,2.061,0,0,0,.82-.81,2.251,2.251,0,0,0,.29-1.09,2.193,2.193,0,0,0-.3-1.1,2,2,0,0,0-.82-.82,2.229,2.229,0,0,0-1.08-.28Zm-1.15,3.65V15.23h1a2.149,2.149,0,0,1,.72.08.687.687,0,0,1,.36.27.717.717,0,0,1,.13.42.769.769,0,0,1-.055.292.753.753,0,0,1-.165.248.9.9,0,0,1-.59.26.7.7,0,0,1,.24.15,3.194,3.194,0,0,1,.42.56l.35.55h-.56l-.25-.44a2.384,2.384,0,0,0-.48-.66.579.579,0,0,0-.37-.1h-.27v1.2Zm.45-1.59h.56a.87.87,0,0,0,.54-.12.381.381,0,0,0,.108-.138.376.376,0,0,0,.032-.172.442.442,0,0,0-.06-.23.379.379,0,0,0-.2-.15,1.472,1.472,0,0,0-.46,0h-.52Z" fill="#323438"/>
    <path id="Path_2208" data-name="Path 2208" d="M249.5,66.36a3.89,3.89,0,0,0,2.74,1c1.57,0,2.6-.89,2.6-2.09,0-2.36-3.7-2.07-3.7-3.37,0-.62.58-.88,1.18-.88a2.64,2.64,0,0,1,1.78.64l.55-1a3.24,3.24,0,0,0-2.31-.79c-1.44,0-2.61.73-2.61,2,0,2.35,3.7,2.08,3.7,3.4,0,.59-.6.9-1.19.9a3.089,3.089,0,0,1-2.07-.84Zm-4.75.88h1.38V64.3a4.719,4.719,0,0,1,.17-1.3,2.191,2.191,0,0,1,2-1.69,2.056,2.056,0,0,1,.4,0V60a2.3,2.3,0,0,0-.35,0,2.47,2.47,0,0,0-2.28,1.88,4.866,4.866,0,0,0,0-.54V60.05h-1.34Zm-6.92-4.44a2.06,2.06,0,0,1,2.1-1.83,1.7,1.7,0,0,1,1.74,1.83Zm-1.47.84a3.66,3.66,0,0,0,3.82,3.77,4.261,4.261,0,0,0,2.78-1l-.57-1a3.409,3.409,0,0,1-2.13.84,2.351,2.351,0,0,1-2.47-2.38H243s.05-.41.05-.59a3.06,3.06,0,0,0-3.05-3.4,3.52,3.52,0,0,0-3.6,3.76Zm-6.54,3.6h1.38V63.86h1l2.16,3.38H236l-2.66-4,2.39-3.17h-1.57l-2,2.64h-1V57.2h-1.38Zm-5.05,0h1.38V64.3a4.362,4.362,0,0,1,.17-1.3,2,2,0,0,1,2.42-1.65V60a2.326,2.326,0,0,0-.36,0,2.451,2.451,0,0,0-2.27,1.88h0a4.866,4.866,0,0,0,0-.54V60.05h-1.34Zm-7.42-3.61a2.476,2.476,0,1,1,.155.98A2.481,2.481,0,0,1,217.35,63.63Zm-1.41,0a3.88,3.88,0,1,0,3.88-3.75,3.759,3.759,0,0,0-3.88,3.75Zm-3.78,3.61h1.4V63l3.36-5.79h-1.59l-1.84,3.3c-.31.57-.61,1.27-.61,1.27s-.3-.71-.61-1.27l-1.86-3.3h-1.6L212.12,63Zm-15,0h1.53l1.48-4.62a7.752,7.752,0,0,0,.2-.78h0s.09.41.2.78L202,67.24h1.52l2.32-7.19h-1.45l-1.51,5a6.531,6.531,0,0,0-.17.77h0s-.08-.4-.19-.77l-1.55-5H199.7l-1.56,5a6.572,6.572,0,0,0-.19.77h0a7.894,7.894,0,0,0-.18-.77l-1.5-5h-1.46ZM189,62.8a2.06,2.06,0,0,1,2.1-1.83,1.7,1.7,0,0,1,1.74,1.83Zm-1.47.84a3.66,3.66,0,0,0,3.81,3.77,4.311,4.311,0,0,0,2.79-1l-.57-1a3.409,3.409,0,0,1-2.13.84,2.359,2.359,0,0,1-2.48-2.38h5.25v-.59a3.06,3.06,0,0,0-3.11-3.37,3.519,3.519,0,0,0-3.6,3.76Zm-9.45,3.63h1.4V60.73c0-.57-.09-1.47-.09-1.47s.47.91.84,1.47l4.48,6.51h1.38v-10h-1.41v6.53c0,.55.1,1.45.1,1.45s-.47-.91-.84-1.45l-4.47-6.53H178.1Zm-8.14,0h1.38V64.3a4.362,4.362,0,0,1,.17-1.3,2,2,0,0,1,2.42-1.65V60a2.326,2.326,0,0,0-.36,0,2.459,2.459,0,0,0-2.27,1.88h0a4.866,4.866,0,0,0,0-.54V60.05H170Zm-7.71-3.61a2.486,2.486,0,1,1,.159.981,2.486,2.486,0,0,1-.159-.981Zm-1.4,0a3.88,3.88,0,1,0,3.88-3.75,3.759,3.759,0,0,0-3.88,3.75Zm-3.59,3.61h1.37v-6h1.7v-1.1h-1.7v-.32a1.37,1.37,0,0,1,1.5-1.51,1.882,1.882,0,0,1,.36,0V57.17a3.127,3.127,0,0,0-.53,0,2.449,2.449,0,0,0-2.7,2.67v.35h-.89v1.1h.89ZM147.15,62.8a2.06,2.06,0,0,1,2.11-1.8A1.7,1.7,0,0,1,151,62.8Zm-1.46.84a3.66,3.66,0,0,0,3.81,3.77,4.261,4.261,0,0,0,2.78-1l-.56-1a3.45,3.45,0,0,1-2.14.84,2.351,2.351,0,0,1-2.47-2.38h5.25v-.59a3.06,3.06,0,0,0-3.12-3.37,3.519,3.519,0,0,0-3.59,3.76Zm-7.55.03A3.68,3.68,0,0,0,142,67.41a3.929,3.929,0,0,0,2.87-1.15l-.55-1a3.249,3.249,0,0,1-2.22,1,2.5,2.5,0,0,1-2.55-2.59,2.459,2.459,0,0,1,2.51-2.56,2.93,2.93,0,0,1,2,.82l.65-1a3.631,3.631,0,0,0-2.7-1.05,3.689,3.689,0,0,0-3.85,3.76Zm-7.76,3.57h1.38V63.87a3.34,3.34,0,0,1,.11-1,2.359,2.359,0,0,1,2.28-1.76c1.15,0,1.36.8,1.36,1.81v4.29h1.38V62.63c0-1.83-.78-2.75-2.47-2.75a3,3,0,0,0-2.71,1.64,4.513,4.513,0,0,0,0-.52V60H130.4ZM124,65.15c0-1.29,1.88-1.36,2.92-1.36h.35V64a2.18,2.18,0,0,1-1.92,2.29A1.209,1.209,0,0,1,124,65.15Zm-1.39.07A2.25,2.25,0,0,0,125,67.41,2.489,2.489,0,0,0,127.34,66h0a4.93,4.93,0,0,0,0,.57v.68h1.28V62.69a2.56,2.56,0,0,0-2.85-2.81,4.481,4.481,0,0,0-2.68.85l.57,1a3.61,3.61,0,0,1,2-.7,1.4,1.4,0,0,1,1.58,1.58v.13h-.31c-1.21,0-4.34.1-4.34,2.47Zm-4.49,1.99h1.38V64.3a4.719,4.719,0,0,1,.17-1.3,2.191,2.191,0,0,1,2-1.69,2.056,2.056,0,0,1,.4,0V60a2.326,2.326,0,0,0-.36,0,2.47,2.47,0,0,0-2.27,1.88h0a4.866,4.866,0,0,0,0-.54V60.05H118.1Zm-8.32-2.59c0,1.91.84,2.76,2.46,2.76a2.91,2.91,0,0,0,2.65-1.65h0a4.684,4.684,0,0,0,0,.53v.95h1.34V60.05h-1.38v3.37a2.479,2.479,0,0,1-1.379,2.461,2.475,2.475,0,0,1-.961.249c-1.15,0-1.35-.79-1.35-1.79V60.05H109.8Zm-6.57,1.71a3.88,3.88,0,0,0,2.73,1c1.58,0,2.61-.89,2.61-2.09,0-2.36-3.7-2.07-3.7-3.37,0-.62.58-.88,1.18-.88a2.64,2.64,0,0,1,1.78.64l.55-1a3.25,3.25,0,0,0-2.32-.79c-1.43,0-2.6.73-2.6,2,0,2.35,3.7,2.08,3.7,3.4,0,.59-.6.9-1.2.9a3.081,3.081,0,0,1-2.06-.84Zm-7.71.88H96.9V63.87a3.308,3.308,0,0,1,.12-1,2.36,2.36,0,0,1,2.27-1.76c1.15,0,1.37.8,1.37,1.81v4.29H102V62.63c0-1.83-.78-2.75-2.48-2.75a2.94,2.94,0,0,0-2.7,1.64,4.7,4.7,0,0,0,0-.52V60H95.48Zm-3.28,0h1.41v-10H92.24Zm-11.09,0h1.38V63.87a3.181,3.181,0,0,1,.11-1,2.38,2.38,0,0,1,2.27-1.78c1.16,0,1.37.8,1.37,1.81v4.29h1.38V62.63c0-1.83-.78-2.75-2.47-2.75a2.91,2.91,0,0,0-2.66,1.6h0a5.475,5.475,0,0,0,0-.59V57.2H81.15Zm-4.51-2.63a2.48,2.48,0,0,0,2.76,2.69,3.591,3.591,0,0,0,.48,0V66.05a1.625,1.625,0,0,1-.33,0A1.43,1.43,0,0,1,78,64.45v-3.2h1.73v-1.1H78V58.07H76.68v2.08h-1v1.1h.94Zm-3.87.67c0,1.81,1.15,2,1.93,2a3.641,3.641,0,0,0,.46,0v-1.2h-.24c-.43,0-.77-.15-.77-1V57.2H72.77Zm-6.33-.13c0-1.29,1.88-1.36,2.92-1.36h.35V64a2.18,2.18,0,0,1-1.92,2.29,1.21,1.21,0,0,1-1.35-1.15Zm-1.39.09a2.25,2.25,0,0,0,2.44,2.19A2.5,2.5,0,0,0,69.8,66h0a5.063,5.063,0,0,0,0,.57v.68h1.28V62.69a2.56,2.56,0,0,0-2.85-2.81,4.53,4.53,0,0,0-2.69.85l.57,1a3.66,3.66,0,0,1,2-.7,1.4,1.4,0,0,1,1.58,1.58v.13h-.32c-1.2,0-4.33.1-4.33,2.47ZM59,62.8A2.06,2.06,0,0,1,61.09,61a1.7,1.7,0,0,1,1.74,1.83Zm-1.47.84a3.66,3.66,0,0,0,3.81,3.77,4.27,4.27,0,0,0,2.79-1l-.57-1a3.41,3.41,0,0,1-2.13.84A2.35,2.35,0,0,1,59,63.84h5.24v-.59a3.06,3.06,0,0,0-3.12-3.37,3.52,3.52,0,0,0-3.6,3.76Zm-9.41,3.6h1.41V62.83h5.21v4.41h1.4v-10h-1.4v4.41H49.53V57.2H48.12Z" fill="#323438"/>
  </g>
</svg>
