<svg xmlns="http://www.w3.org/2000/svg" width="79.96" height="73.92" viewBox="0 0 79.96 73.92">
  <g id="medicare-img3" transform="translate(-12.02 -15.04)">
    <g id="Group_1068" data-name="Group 1068">
      <path id="Path_2484" data-name="Path 2484" d="M22.06,49.47a26.6,26.6,0,0,1,6.03-13.83" fill="none" stroke="#000" stroke-linecap="round" stroke-linejoin="round" stroke-width="2"/>
      <path id="Path_2485" data-name="Path 2485" d="M51.52,26.2a26.58,26.58,0,0,1,13.4,5.34" fill="none" stroke="#000" stroke-linecap="round" stroke-linejoin="round" stroke-width="2"/>
      <path id="Path_2486" data-name="Path 2486" d="M69.08,35.49A26.672,26.672,0,0,1,75.15,48.8" fill="none" stroke="#000" stroke-linecap="round" stroke-linejoin="round" stroke-width="2"/>
      <path id="Path_2487" data-name="Path 2487" d="M52.19,79.43a26.6,26.6,0,0,0,14.18-6.46" fill="none" stroke="#000" stroke-linecap="round" stroke-linejoin="round" stroke-width="2"/>
      <path id="Path_2488" data-name="Path 2488" d="M21.95,55.21a26.628,26.628,0,0,0,5.81,14.44" fill="none" stroke="#000" stroke-linecap="round" stroke-linejoin="round" stroke-width="2"/>
      <path id="Path_2489" data-name="Path 2489" d="M31.81,73.71a26.546,26.546,0,0,0,14.64,5.86" fill="none" stroke="#000" stroke-linecap="round" stroke-linejoin="round" stroke-width="2"/>
      <path id="Path_2490" data-name="Path 2490" d="M70.25,68.73A26.6,26.6,0,0,0,75.4,54.54" fill="none" stroke="#000" stroke-linecap="round" stroke-linejoin="round" stroke-width="2"/>
      <path id="Path_2491" data-name="Path 2491" d="M32.23,31.66A26.6,26.6,0,0,1,45.78,26.2" fill="none" stroke="#000" stroke-linecap="round" stroke-linejoin="round" stroke-width="2"/>
      <path id="Path_2492" data-name="Path 2492" d="M51.52,26.2V21.78h1.97a2.87,2.87,0,0,0,0-5.74H43.81a2.87,2.87,0,0,0,0,5.74h1.97V26.2" fill="none" stroke="#000" stroke-linecap="round" stroke-linejoin="round" stroke-width="2"/>
      <path id="Path_2493" data-name="Path 2493" d="M32.23,31.66l-2.82-2.82,1.39-1.39a2.871,2.871,0,0,0-4.06-4.06L19.9,30.23a2.871,2.871,0,0,0,4.06,4.06l1.39-1.39,2.74,2.74" fill="none" stroke="#000" stroke-linecap="round" stroke-linejoin="round" stroke-width="2"/>
      <path id="Path_2494" data-name="Path 2494" d="M22.06,49.47h-3.3V47.5a2.87,2.87,0,0,0-5.74,0v9.68a2.87,2.87,0,0,0,5.74,0V55.21h3.19" fill="none" stroke="#000" stroke-linecap="round" stroke-linejoin="round" stroke-width="2"/>
      <path id="Path_2495" data-name="Path 2495" d="M31.81,73.71l-1.93,1.93,1.4,1.39a2.871,2.871,0,0,1-4.06,4.06l-6.85-6.84a2.871,2.871,0,0,1,4.06-4.06l1.4,1.39,1.93-1.93" fill="none" stroke="#000" stroke-linecap="round" stroke-linejoin="round" stroke-width="2"/>
      <path id="Path_2496" data-name="Path 2496" d="M52.19,79.43v2.79h1.97a2.87,2.87,0,1,1,0,5.74H44.48a2.87,2.87,0,1,1,0-5.74h1.97V79.57" fill="none" stroke="#000" stroke-linecap="round" stroke-linejoin="round" stroke-width="2"/>
      <path id="Path_2497" data-name="Path 2497" d="M70.25,68.73l2.38,2.38,1.39-1.4a2.871,2.871,0,0,1,4.06,4.06l-6.85,6.85a2.871,2.871,0,0,1-4.06-4.06l1.4-1.4-2.2-2.19" fill="none" stroke="#000" stroke-linecap="round" stroke-linejoin="round" stroke-width="2"/>
      <path id="Path_2498" data-name="Path 2498" d="M75.4,54.54h3.81v1.97a2.87,2.87,0,1,0,5.74,0V46.83a2.87,2.87,0,1,0-5.74,0V48.8H75.15" fill="none" stroke="#000" stroke-linecap="round" stroke-linejoin="round" stroke-width="2"/>
      <path id="Path_2499" data-name="Path 2499" d="M69.08,35.49l3.07-3.07,1.39,1.4a2.871,2.871,0,0,0,4.06-4.06l-6.84-6.85a2.888,2.888,0,0,0-2.03-.84,2.87,2.87,0,0,0-2.03,4.9l1.39,1.39-3.17,3.18" fill="none" stroke="#000" stroke-linecap="round" stroke-linejoin="round" stroke-width="2"/>
    </g>
    <circle id="Ellipse_114" data-name="Ellipse 114" cx="9.353" cy="9.353" r="9.353" transform="translate(29.777 50.027)" fill="none" stroke="#000" stroke-linecap="round" stroke-linejoin="round" stroke-width="2"/>
    <circle id="Ellipse_115" data-name="Ellipse 115" cx="4.554" cy="4.554" r="4.554" transform="translate(40.318 33.971)" fill="#1b4acc" stroke="#000" stroke-linecap="round" stroke-linejoin="round" stroke-width="2"/>
    <circle id="Ellipse_116" data-name="Ellipse 116" cx="2.277" cy="2.277" r="2.277" transform="translate(54.467 66.453)" fill="#1b4acc" stroke="#000" stroke-linecap="round" stroke-linejoin="round" stroke-width="2"/>
    <circle id="Ellipse_117" data-name="Ellipse 117" cx="6.72" cy="6.72" r="6.72" transform="translate(54.467 44.95)" fill="none" stroke="#000" stroke-linecap="round" stroke-linejoin="round" stroke-width="2"/>
    <g id="Group_1069" data-name="Group 1069">
      <rect id="Rectangle_2804" data-name="Rectangle 2804" width="32.76" height="20.761" rx="10.38" transform="translate(58.22 18.4)" fill="#1b4acc" stroke="#000" stroke-linecap="round" stroke-linejoin="round" stroke-width="2"/>
      <text id="_ve" data-name="+ve" transform="translate(65.09 32.287)" fill="#1b4acc" font-size="12" font-family="Roboto-Bold, Roboto" font-weight="700"><tspan x="0" y="0">+ve</tspan></text>
    </g>
  </g>
</svg>
