<svg xmlns="http://www.w3.org/2000/svg" width="83.45" height="75.251" viewBox="0 0 83.45 75.251">
  <g id="medicare-img10" transform="translate(-9.691 -14.375)">
    <g id="Group_1140" data-name="Group 1140">
      <path id="Path_2668" data-name="Path 2668" d="M59.292,21.077h0a5.7,5.7,0,0,0-5.7-5.7H51.3a5.7,5.7,0,0,0-5.7,5.7H42.112a1.9,1.9,0,0,0-1.9,1.9v3.8H64.678v-3.8a1.9,1.9,0,0,0-1.9-1.9H59.292Z" fill="none" stroke="#000" stroke-linecap="round" stroke-linejoin="round" stroke-width="2"/>
      <path id="Path_2669" data-name="Path 2669" d="M70.123,24.535a5.7,5.7,0,0,1,5.745,5.657V82.969a5.7,5.7,0,0,1-5.745,5.657H34.77a5.7,5.7,0,0,1-5.745-5.657V30.192a5.7,5.7,0,0,1,5.745-5.657" fill="none" stroke="#000" stroke-linecap="round" stroke-linejoin="round" stroke-width="2"/>
      <path id="Path_2670" data-name="Path 2670" d="M24.214,78.9,22,79.32a4.377,4.377,0,0,1-5.112-3.489L10.776,43.469a4.377,4.377,0,0,1,3.489-5.112l9.148-1.727" fill="none" stroke="#000" stroke-linecap="round" stroke-linejoin="round" stroke-width="2"/>
      <path id="Path_2671" data-name="Path 2671" d="M82.139,37.18,88.6,38.45a4.377,4.377,0,0,1,3.45,5.139L85.7,75.9a4.377,4.377,0,0,1-5.139,3.45l-1.184-.233" fill="none" stroke="#000" stroke-linecap="round" stroke-linejoin="round" stroke-width="2"/>
      <circle id="Ellipse_164" data-name="Ellipse 164" cx="9.235" cy="9.235" r="9.235" transform="translate(43.211 34.876)" fill="#1b4acc" stroke="#000" stroke-linecap="round" stroke-linejoin="round" stroke-width="2"/>
      <g id="Group_1139" data-name="Group 1139">
        <line id="Line_315" data-name="Line 315" y2="8.704" transform="translate(52.446 39.736)" fill="none" stroke="#f3f5f9" stroke-linecap="round" stroke-linejoin="round" stroke-width="2"/>
        <line id="Line_316" data-name="Line 316" x1="8.705" transform="translate(48.094 44.088)" fill="none" stroke="#f3f5f9" stroke-linecap="round" stroke-linejoin="round" stroke-width="2"/>
      </g>
      <line id="Line_317" data-name="Line 317" x2="27.615" transform="translate(38.755 62.909)" fill="none" stroke="#000" stroke-linecap="round" stroke-linejoin="round" stroke-width="2"/>
      <line id="Line_318" data-name="Line 318" x2="15.24" transform="translate(44.942 69.654)" fill="none" stroke="#000" stroke-linecap="round" stroke-linejoin="round" stroke-width="2"/>
      <path id="Path_2672" data-name="Path 2672" d="M17.7,46.218l1.461,7.771,5.3-1.242V44.975Z" fill="#1b4acc" stroke="#000" stroke-linecap="round" stroke-linejoin="round" stroke-width="2"/>
      <line id="Line_319" data-name="Line 319" y1="0.894" x2="4.56" transform="translate(19.654 59.21)" stroke="#000" stroke-linecap="round" stroke-linejoin="round" stroke-width="2"/>
      <line id="Line_320" data-name="Line 320" x2="4.822" y2="1.065" transform="translate(80.932 44.975)" stroke="#000" stroke-linecap="round" stroke-linejoin="round" stroke-width="2"/>
      <line id="Line_321" data-name="Line 321" x2="3.104" y2="0.686" transform="translate(81.092 51.864)" stroke="#000" stroke-linecap="round" stroke-linejoin="round" stroke-width="2"/>
    </g>
    <path id="Path_2673" data-name="Path 2673" d="M43.184,81.745c2.183-4.367,3.93-5.127,6.131-4.948.688.056,2.1.79,3.761,3.755l2.845-2.573s2.245,4.819,5.743,2.275" fill="none" stroke="#000" stroke-linecap="round" stroke-linejoin="round" stroke-width="2"/>
  </g>
</svg>
