<svg xmlns="http://www.w3.org/2000/svg" width="82.246" height="66.708" viewBox="0 0 82.246 66.708">
  <g id="medicare-img4" transform="translate(-10.95 -19)">
    <path id="Path_2074" data-name="Path 2074" d="M77.7,77l13.4-3.1,1.1,10.4H76.9Z" fill="#1b4acc"/>
    <path id="Path_2077" data-name="Path 2077" d="M46.6,84.3H16a3.959,3.959,0,0,1-3.3-6.2l4-6.1H41.9A21.427,21.427,0,0,0,46.6,84.3Z" fill="#1b4acc"/>
    <path id="Path_2065" data-name="Path 2065" d="M60.2,84.3H16a3.959,3.959,0,0,1-3.3-6.2l4-6.1L29.4,52.6V42.5H39.6V52.6l4.9,7.6" fill="none" stroke="#000" stroke-linecap="round" stroke-linejoin="round" stroke-miterlimit="10" stroke-width="2"/>
    <path id="Path_2066" data-name="Path 2066" d="M43.5,36.2H25.6v6.3H43.5Z" fill="#1b4acc" stroke="#000" stroke-linecap="round" stroke-linejoin="round" stroke-miterlimit="10" stroke-width="2"/>
    <path id="Path_2067" data-name="Path 2067" d="M46.6,84.3A21.53,21.53,0,0,1,41.8,72V70.7c0-.9.1-1.7.1-2.5a19.867,19.867,0,0,1,2.6-8A21.613,21.613,0,0,1,58.3,49.7" fill="none" stroke="#000" stroke-linecap="round" stroke-linejoin="round" stroke-miterlimit="10" stroke-width="2"/>
    <path id="Path_2068" data-name="Path 2068" d="M68.6,49.6a21.579,21.579,0,0,1,15.9,16" fill="none" stroke="#000" stroke-linecap="round" stroke-linejoin="round" stroke-miterlimit="10" stroke-width="2"/>
    <path id="Path_2069" data-name="Path 2069" d="M58.4,49.6V26.3" fill="none" stroke="#000" stroke-linecap="round" stroke-linejoin="round" stroke-miterlimit="10" stroke-width="2"/>
    <path id="Path_2070" data-name="Path 2070" d="M68.6,49.6V26.3" fill="none" stroke="#000" stroke-linecap="round" stroke-linejoin="round" stroke-miterlimit="10" stroke-width="2"/>
    <path id="Path_2071" data-name="Path 2071" d="M72.5,20H54.6v6.3H72.5Z" fill="#1b4acc" stroke="#000" stroke-linecap="round" stroke-linejoin="round" stroke-miterlimit="10" stroke-width="2"/>
    <path id="Path_2072" data-name="Path 2072" d="M80.4,84.3H46.6" fill="none" stroke="#000" stroke-linecap="round" stroke-linejoin="round" stroke-miterlimit="10" stroke-width="2"/>
    <path id="Path_2073" data-name="Path 2073" d="M92.2,84.3H76.9l2-18.7H90.2Z" fill="none" stroke="#000" stroke-linecap="round" stroke-linejoin="round" stroke-miterlimit="10" stroke-width="2"/>
    <path id="Path_2075" data-name="Path 2075" d="M58,76a4.8,4.8,0,1,0-4.8-4.8A4.8,4.8,0,0,0,58,76Z" fill="none" stroke="#000" stroke-linecap="round" stroke-linejoin="round" stroke-miterlimit="10" stroke-width="2"/>
    <path id="Path_2076" data-name="Path 2076" d="M67.2,64.3a3.7,3.7,0,1,0-3.7-3.7A3.7,3.7,0,0,0,67.2,64.3Z" fill="none" stroke="#000" stroke-linecap="round" stroke-linejoin="round" stroke-miterlimit="10" stroke-width="2"/>
  </g>
</svg>
