<svg xmlns="http://www.w3.org/2000/svg" width="82.94" height="78.89" viewBox="0 0 82.94 78.89">
  <g id="medicare-img9" transform="translate(-8.294 -13.854)">
    <g id="Group_1147" data-name="Group 1147">
      <path id="Path_2688" data-name="Path 2688" d="M25.292,61.473c-1.573,2.151-5.022,1.475-6.787,3.28-1.982,2.027-.354,5.336-1.776,8.437-.62,1.352-1.231,2.37-4.441,3.315-.775.228-1.7.452-2.817.676" fill="none" stroke="#000" stroke-linecap="round" stroke-linejoin="round" stroke-width="2"/>
      <g id="Group_1145" data-name="Group 1145">
        <path id="Path_2689" data-name="Path 2689" d="M29.524,45.709A29.855,29.855,0,1,1,59.379,75.564" fill="none" stroke="#000" stroke-linecap="round" stroke-linejoin="round" stroke-width="4"/>
        <path id="Path_2690" data-name="Path 2690" d="M39.8,45.709A19.576,19.576,0,1,1,59.378,65.285" fill="none" stroke="#000" stroke-linecap="round" stroke-linejoin="round" stroke-width="2"/>
        <circle id="Ellipse_166" data-name="Ellipse 166" cx="5.082" cy="5.082" r="5.082" transform="translate(49.215 36.01)" fill="#1b4acc"/>
        <circle id="Ellipse_167" data-name="Ellipse 167" cx="2.988" cy="2.988" r="2.988" transform="translate(65.159 36.011)" fill="#1b4acc"/>
        <circle id="Ellipse_168" data-name="Ellipse 168" cx="5.119" cy="5.119" r="5.119" transform="translate(60.053 46.456)" fill="#1b4acc"/>
      </g>
      <path id="Path_2691" data-name="Path 2691" d="M30.893,60.7c-2.534,2.534-4.3,2.1-5.654.741s-1.793-3.12.741-5.654,6.217-3.239,7.045-2.132c.915,1.224.4,4.511-2.132,7.045Z" fill="none" stroke="#000" stroke-linecap="round" stroke-linejoin="round" stroke-width="2"/>
      <g id="Group_1146" data-name="Group 1146">
        <path id="Path_2692" data-name="Path 2692" d="M42.98,78.441c-5.479-.28-5.013,5.047-5.284,6.838-.547,3.619-3.985,6.142-8.172,6.4" fill="none" stroke="#000" stroke-linecap="round" stroke-linejoin="round" stroke-width="2"/>
        <path id="Path_2693" data-name="Path 2693" d="M48.551,78.54c-2.945,2.043-4.6,1.3-5.7-.277s-1.209-3.39,1.736-5.432,6.218-2.42,7.312-.844S51.5,76.5,48.551,78.54Z" fill="none" stroke="#000" stroke-linecap="round" stroke-linejoin="round" stroke-width="2"/>
      </g>
      <path id="Path_2694" data-name="Path 2694" d="M41.894,63.155c-2.442,3.341-6.56,1.408-9.3,4.211-3.077,3.148-1.189,7.605-3.4,12.419C28,82.392,23.885,85.529,17.38,83.89" fill="none" stroke="#000" stroke-linecap="round" stroke-linejoin="round" stroke-width="2"/>
    </g>
    <path id="Path_2695" data-name="Path 2695" d="M48.479,62.078c-2.995,2.995-5.08,2.48-6.684.876s-2.119-3.688.876-6.684S50.019,52.441,51,53.75c1.082,1.447.476,5.332-2.52,8.327Z" fill="none" stroke="#000" stroke-linecap="round" stroke-linejoin="round" stroke-width="2"/>
  </g>
</svg>
