<svg xmlns="http://www.w3.org/2000/svg" width="72.81" height="71.65" viewBox="0 0 72.81 71.65">
  <g id="medicare-img5" transform="translate(-15.595 -16.175)">
    <g id="Group_1077" data-name="Group 1077">
      <path id="Path_2511" data-name="Path 2511" d="M23.829,86.446V79.652a7.151,7.151,0,0,0-1.611-4.521l-4.312-5.282a5.815,5.815,0,0,1-1.311-3.678V53.538A4.333,4.333,0,0,1,20.928,49.2h3.491V60.9" fill="none" stroke="#000" stroke-linecap="round" stroke-linejoin="round" stroke-width="2"/>
      <path id="Path_2512" data-name="Path 2512" d="M24.424,53.135V28.24a3.912,3.912,0,0,1,3.912-3.912h0a3.912,3.912,0,0,1,3.912,3.912V50.677" fill="none" stroke="#000" stroke-linecap="round" stroke-linejoin="round" stroke-width="2"/>
      <path id="Path_2513" data-name="Path 2513" d="M32.249,61.276V45.484a3.912,3.912,0,0,1,3.912-3.912h0a3.912,3.912,0,0,1,3.912,3.912V60.289" fill="none" stroke="#000" stroke-linecap="round" stroke-linejoin="round" stroke-width="2"/>
      <path id="Path_2514" data-name="Path 2514" d="M40.074,61.276V49.994a3.912,3.912,0,0,1,3.912-3.912h0A3.912,3.912,0,0,1,47.9,49.994v10.68" fill="none" stroke="#000" stroke-linecap="round" stroke-linejoin="round" stroke-width="2"/>
      <path id="Path_2515" data-name="Path 2515" d="M47.9,62.9v-8.53a3.912,3.912,0,0,1,3.912-3.912h0a3.912,3.912,0,0,1,3.912,3.912V67.1a8.692,8.692,0,0,1-2.5,6.1h0a13.445,13.445,0,0,0-3.867,9.436v3.812" fill="none" stroke="#000" stroke-linecap="round" stroke-linejoin="round" stroke-width="2"/>
    </g>
    <g id="Group_1078" data-name="Group 1078">
      <path id="Path_2516" data-name="Path 2516" d="M63.3,26.015H87.4V65.307a7.966,7.966,0,0,1-7.962,7.962H71.264A7.966,7.966,0,0,1,63.3,65.307V26.015h0Z" fill="none" stroke="#000" stroke-linecap="round" stroke-linejoin="round" stroke-width="2"/>
      <rect id="Rectangle_2805" data-name="Rectangle 2805" width="14.452" height="30.056" transform="translate(68.215 30.599)" fill="none" stroke="#000" stroke-linecap="round" stroke-linejoin="round" stroke-width="2"/>
      <circle id="Ellipse_121" data-name="Ellipse 121" cx="2.457" cy="2.457" r="2.457" transform="translate(68.215 64.521)" fill="#1b4acc" stroke="#000" stroke-linecap="round" stroke-linejoin="round" stroke-width="2"/>
      <circle id="Ellipse_122" data-name="Ellipse 122" cx="2.457" cy="2.457" r="2.457" transform="translate(77.753 64.521)" fill="#1b4acc" stroke="#000" stroke-linecap="round" stroke-linejoin="round" stroke-width="2"/>
    </g>
    <rect id="Rectangle_2806" data-name="Rectangle 2806" width="5.574" height="13.556" transform="translate(72.566 73.269)" fill="none" stroke="#000" stroke-linecap="round" stroke-linejoin="round" stroke-width="2"/>
    <circle id="Ellipse_123" data-name="Ellipse 123" cx="1.415" cy="1.415" r="1.415" transform="translate(26.913 28.194)" fill="#1b4acc"/>
    <g id="Group_1079" data-name="Group 1079">
      <path id="Path_2517" data-name="Path 2517" d="M52.788,22.064,47.9,17.175l-4.89,4.89a6.919,6.919,0,1,0,9.78,0Z" fill="#1b4acc" stroke="#000" stroke-linecap="round" stroke-linejoin="round" stroke-width="2"/>
      <path id="Path_2518" data-name="Path 2518" d="M52.176,26.76A4.277,4.277,0,0,1,47.9,31.037" fill="#1b4acc" stroke="#fff" stroke-linecap="round" stroke-linejoin="round" stroke-width="2"/>
    </g>
  </g>
</svg>
