<svg xmlns="http://www.w3.org/2000/svg" width="78.204" height="83.553" viewBox="0 0 78.204 83.553">
  <g id="medicare-img8" transform="translate(-13.032 -10.26)">
    <g id="Group_1011" data-name="Group 1011">
      <path id="Path_2308" data-name="Path 2308" d="M43.027,22.411a5.511,5.511,0,0,0-7.473-4.784,23.445,23.445,0,0,0,3.163,44.561A5.512,5.512,0,0,0,45.44,56.4l-.031-.43a5.622,5.622,0,0,0-4.253-4.992,11.975,11.975,0,0,1-1.6-22.592,5.622,5.622,0,0,0,3.506-5.542l-.031-.43Z" fill="none" stroke="#000" stroke-linecap="round" stroke-linejoin="round" stroke-width="2"/>
      <line id="Line_130" data-name="Line 130" y1="7.013" x2="1.036" transform="translate(33.529 60.756)" fill="none" stroke="#000" stroke-linecap="round" stroke-linejoin="round" stroke-width="2"/>
      <line id="Line_131" data-name="Line 131" y1="5.061" x2="3.98" transform="translate(24.609 57.411)" fill="none" stroke="#000" stroke-linecap="round" stroke-linejoin="round" stroke-width="2"/>
      <line id="Line_132" data-name="Line 132" y1="3.142" x2="5.62" transform="translate(18.949 52.233)" fill="none" stroke="#000" stroke-linecap="round" stroke-linejoin="round" stroke-width="2"/>
      <line id="Line_133" data-name="Line 133" y1="1.972" x2="6.708" transform="translate(32.903 41.302)" fill="none" stroke="#000" stroke-linecap="round" stroke-linejoin="round" stroke-width="2"/>
      <line id="Line_134" data-name="Line 134" y1="4.859" x2="4.28" transform="translate(41.94 46.384)" fill="none" stroke="#000" stroke-linecap="round" stroke-linejoin="round" stroke-width="2"/>
      <line id="Line_135" data-name="Line 135" y1="2.305" x2="6.552" transform="translate(45.338 53.097)" fill="none" stroke="#000" stroke-linecap="round" stroke-linejoin="round" stroke-width="2"/>
      <line id="Line_136" data-name="Line 136" x2="5.413" y2="4.023" transform="translate(44.239 60.26)" fill="none" stroke="#000" stroke-linecap="round" stroke-linejoin="round" stroke-width="2"/>
      <line id="Line_137" data-name="Line 137" x2="6.541" y2="2.669" transform="translate(34.448 32.509)" fill="none" stroke="#000" stroke-linecap="round" stroke-linejoin="round" stroke-width="2"/>
      <line id="Line_138" data-name="Line 138" x1="4.876" y2="2.578" transform="translate(42.344 17.528)" fill="none" stroke="#000" stroke-linecap="round" stroke-linejoin="round" stroke-width="2"/>
      <line id="Line_139" data-name="Line 139" y1="1.084" x2="6.346" transform="translate(15.114 45.503)" fill="none" stroke="#000" stroke-linecap="round" stroke-linejoin="round" stroke-width="2"/>
      <line id="Line_140" data-name="Line 140" x2="6.434" y2="0.209" transform="translate(14.064 37.886)" fill="none" stroke="#000" stroke-linecap="round" stroke-linejoin="round" stroke-width="2"/>
      <line id="Line_141" data-name="Line 141" x2="5.993" y2="2.352" transform="translate(16.309 27.612)" fill="none" stroke="#000" stroke-linecap="round" stroke-linejoin="round" stroke-width="2"/>
      <line id="Line_142" data-name="Line 142" x2="4.383" y2="4.715" transform="translate(21.685 19.218)" fill="none" stroke="#000" stroke-linecap="round" stroke-linejoin="round" stroke-width="2"/>
      <line id="Line_143" data-name="Line 143" x2="3.175" y2="5.601" transform="translate(28.389 13.711)" fill="none" stroke="#000" stroke-linecap="round" stroke-linejoin="round" stroke-width="2"/>
      <line id="Line_144" data-name="Line 144" x2="0.42" y2="5.917" transform="translate(37.13 11.328)" fill="none" stroke="#000" stroke-linecap="round" stroke-linejoin="round" stroke-width="2"/>
      <line id="Line_145" data-name="Line 145" x1="3.18" y1="2.532" transform="translate(42.36 25.905)" fill="none" stroke="#000" stroke-linecap="round" stroke-linejoin="round" stroke-width="2"/>
      <circle id="Ellipse_69" data-name="Ellipse 69" cx="1.86" cy="1.86" r="1.86" transform="translate(36.977 54.824)" fill="#1b4acc"/>
      <circle id="Ellipse_70" data-name="Ellipse 70" cx="1.86" cy="1.86" r="1.86" transform="translate(30.709 51.177)" fill="#1b4acc"/>
      <circle id="Ellipse_71" data-name="Ellipse 71" cx="1.86" cy="1.86" r="1.86" transform="translate(26.722 45.319)" fill="#1b4acc"/>
      <circle id="Ellipse_72" data-name="Ellipse 72" cx="1.86" cy="1.86" r="1.86" transform="translate(25.312 37.626)" fill="#1b4acc"/>
      <circle id="Ellipse_73" data-name="Ellipse 73" cx="1.86" cy="1.86" r="1.86" transform="translate(26.724 29.2)" fill="#1b4acc"/>
      <circle id="Ellipse_74" data-name="Ellipse 74" cx="1.86" cy="1.86" r="1.86" transform="translate(32.276 22.8)" fill="#1b4acc"/>
    </g>
    <g id="Group_1012" data-name="Group 1012">
      <path id="Path_2309" data-name="Path 2309" d="M53.357,78.7a5.806,5.806,0,0,0,5.349,7.226A23.808,23.808,0,0,0,82.47,55.617a5.692,5.692,0,0,0-8.675-3.166l-.248.169a5.786,5.786,0,0,0-2.232,6.353A12.16,12.16,0,0,1,59.141,74.291,5.779,5.779,0,0,0,53.358,78.7h0Z" fill="none" stroke="#000" stroke-linecap="round" stroke-linejoin="round" stroke-width="2"/>
      <line id="Line_146" data-name="Line 146" x1="6.683" y2="2.675" transform="translate(83.253 57.038)" fill="none" stroke="#000" stroke-linecap="round" stroke-linejoin="round" stroke-width="2"/>
      <line id="Line_147" data-name="Line 147" x1="6.475" y1="0.906" transform="translate(83.372 66.666)" fill="none" stroke="#000" stroke-linecap="round" stroke-linejoin="round" stroke-width="2"/>
      <line id="Line_148" data-name="Line 148" x1="5.629" y1="3.325" transform="translate(80.883 72.84)" fill="none" stroke="#000" stroke-linecap="round" stroke-linejoin="round" stroke-width="2"/>
      <line id="Line_149" data-name="Line 149" x1="5.159" y1="4.878" transform="translate(63.603 65.228)" fill="none" stroke="#000" stroke-linecap="round" stroke-linejoin="round" stroke-width="2"/>
      <line id="Line_150" data-name="Line 150" x1="6.452" y1="1.272" transform="translate(64.684 56.831)" fill="none" stroke="#000" stroke-linecap="round" stroke-linejoin="round" stroke-width="2"/>
      <line id="Line_151" data-name="Line 151" x1="5.372" y1="4.57" transform="translate(67.677 48.425)" fill="none" stroke="#000" stroke-linecap="round" stroke-linejoin="round" stroke-width="2"/>
      <line id="Line_152" data-name="Line 152" y1="6.806" x2="0.764" transform="translate(77.873 44.671)" fill="none" stroke="#000" stroke-linecap="round" stroke-linejoin="round" stroke-width="2"/>
      <line id="Line_153" data-name="Line 153" x1="1.002" y1="7.104" transform="translate(57.524 67.149)" fill="none" stroke="#000" stroke-linecap="round" stroke-linejoin="round" stroke-width="2"/>
      <line id="Line_154" data-name="Line 154" y1="0.753" x2="8.426" transform="translate(44.898 81.387)" fill="none" stroke="#000" stroke-linecap="round" stroke-linejoin="round" stroke-width="2"/>
      <line id="Line_155" data-name="Line 155" x1="4.195" y1="5.014" transform="translate(76.566 79.008)" fill="none" stroke="#000" stroke-linecap="round" stroke-linejoin="round" stroke-width="2"/>
      <line id="Line_156" data-name="Line 156" x1="3.106" y1="5.753" transform="translate(70.557 83.638)" fill="none" stroke="#000" stroke-linecap="round" stroke-linejoin="round" stroke-width="2"/>
      <line id="Line_157" data-name="Line 157" x1="1" y1="6.461" transform="translate(62.5 86.211)" fill="none" stroke="#000" stroke-linecap="round" stroke-linejoin="round" stroke-width="2"/>
      <line id="Line_158" data-name="Line 158" y1="6.257" x2="1.897" transform="translate(53.386 85.989)" fill="none" stroke="#000" stroke-linecap="round" stroke-linejoin="round" stroke-width="2"/>
      <line id="Line_159" data-name="Line 159" x2="6.356" y2="4.623" transform="translate(47.765 71.675)" fill="none" stroke="#000" stroke-linecap="round" stroke-linejoin="round" stroke-width="2"/>
      <circle id="Ellipse_75" data-name="Ellipse 75" cx="1.889" cy="1.889" r="1.889" transform="translate(75.607 56.156)" fill="#1b4acc"/>
      <circle id="Ellipse_76" data-name="Ellipse 76" cx="1.889" cy="1.889" r="1.889" transform="translate(75.611 63.52)" fill="#1b4acc"/>
      <circle id="Ellipse_77" data-name="Ellipse 77" cx="1.889" cy="1.889" r="1.889" transform="translate(72.508 70.013)" fill="#1b4acc"/>
      <circle id="Ellipse_78" data-name="Ellipse 78" cx="1.889" cy="1.889" r="1.889" transform="translate(66.478 75.182)" fill="#1b4acc"/>
      <circle id="Ellipse_79" data-name="Ellipse 79" cx="1.889" cy="1.889" r="1.889" transform="translate(58.363 78.25)" fill="#1b4acc"/>
    </g>
    <g id="Group_1013" data-name="Group 1013">
      <line id="Line_160" data-name="Line 160" y1="0.218" x2="3.07" transform="translate(50.982 36.149)" fill="none" stroke="#000" stroke-linecap="round" stroke-linejoin="round" stroke-width="2"/>
      <circle id="Ellipse_80" data-name="Ellipse 80" cx="7.729" cy="7.729" r="7.729" transform="translate(54.023 27.739)" fill="#1b4acc" stroke="#000" stroke-linecap="round" stroke-linejoin="round" stroke-width="2"/>
      <circle id="Ellipse_81" data-name="Ellipse 81" cx="1.826" cy="1.826" r="1.826" transform="translate(56.789 31.352)" fill="#1b4acc"/>
      <circle id="Ellipse_82" data-name="Ellipse 82" cx="2.781" cy="2.781" r="2.781" transform="translate(61.138 34.705)" fill="#1b4acc"/>
      <line id="Line_161" data-name="Line 161" x2="2.325" y2="2.017" transform="translate(53.501 28.488)" fill="none" stroke="#000" stroke-linecap="round" stroke-linejoin="round" stroke-width="2"/>
      <line id="Line_162" data-name="Line 162" y1="2.325" x2="2.016" transform="translate(54.773 41.395)" fill="none" stroke="#000" stroke-linecap="round" stroke-linejoin="round" stroke-width="2"/>
      <line id="Line_163" data-name="Line 163" x1="0.218" y1="3.069" transform="translate(62.433 43.169)" fill="none" stroke="#000" stroke-linecap="round" stroke-linejoin="round" stroke-width="2"/>
      <line id="Line_164" data-name="Line 164" x1="2.325" y1="2.016" transform="translate(67.679 40.432)" fill="none" stroke="#000" stroke-linecap="round" stroke-linejoin="round" stroke-width="2"/>
      <line id="Line_165" data-name="Line 165" x1="3.069" y2="0.218" transform="translate(69.453 34.569)" fill="none" stroke="#000" stroke-linecap="round" stroke-linejoin="round" stroke-width="2"/>
      <line id="Line_166" data-name="Line 166" x1="2.016" y2="2.325" transform="translate(66.716 27.217)" fill="none" stroke="#000" stroke-linecap="round" stroke-linejoin="round" stroke-width="2"/>
      <line id="Line_167" data-name="Line 167" x2="0.218" y2="3.07" transform="translate(60.853 24.698)" fill="none" stroke="#000" stroke-linecap="round" stroke-linejoin="round" stroke-width="2"/>
    </g>
    <g id="Group_1014" data-name="Group 1014">
      <line id="Line_168" data-name="Line 168" y1="0.217" x2="8.808" transform="translate(29.643 79.015)" fill="none" stroke="#000" stroke-linecap="round" stroke-linejoin="round" stroke-width="2"/>
      <line id="Line_169" data-name="Line 169" x2="0.217" y2="8.808" transform="translate(33.938 74.72)" fill="none" stroke="#000" stroke-linecap="round" stroke-linejoin="round" stroke-width="2"/>
      <line id="Line_170" data-name="Line 170" x2="6.382" y2="6.074" transform="translate(30.856 76.087)" fill="none" stroke="#000" stroke-linecap="round" stroke-linejoin="round" stroke-width="2"/>
      <line id="Line_171" data-name="Line 171" x1="6.074" y2="6.382" transform="translate(31.01 75.933)" fill="none" stroke="#000" stroke-linecap="round" stroke-linejoin="round" stroke-width="2"/>
    </g>
  </g>
</svg>
