<svg xmlns="http://www.w3.org/2000/svg" width="80.708" height="75.917" viewBox="0 0 80.708 75.917">
  <g id="medicare-img7" transform="translate(-11.709 -14.041)">
    <line id="Line_127" data-name="Line 127" y1="20.477" transform="translate(38.103 18.49)" fill="none" stroke="#000" stroke-linecap="round" stroke-linejoin="round" stroke-width="2"/>
    <path id="Path_2290" data-name="Path 2290" d="M47.026,18.49V81.3a4.379,4.379,0,0,1-4.376,4.376h-.17A4.379,4.379,0,0,1,38.1,81.3V63.99" fill="none" stroke="#000" stroke-linecap="round" stroke-linejoin="round" stroke-width="2"/>
    <line id="Line_128" data-name="Line 128" y1="9.215" transform="translate(38.103 47.654)" fill="none" stroke="#000" stroke-linecap="round" stroke-linejoin="round" stroke-width="2"/>
    <g id="Group_1008" data-name="Group 1008">
      <path id="Path_2291" data-name="Path 2291" d="M13.511,37.62a24.248,24.248,0,0,1,8.652.273c8.56,2.141,14.509,7.642,15.941,9.761" fill="none" stroke="#000" stroke-linecap="round" stroke-linejoin="round" stroke-width="2"/>
      <path id="Path_2292" data-name="Path 2292" d="M13.511,32.756l10.809.681a19.635,19.635,0,0,1-11.4-13.805" fill="none" stroke="#000" stroke-linecap="round" stroke-linejoin="round" stroke-width="2"/>
      <path id="Path_2293" data-name="Path 2293" d="M16.213,16.818S18.1,26.823,25.536,30.333,39.91,41.028,39.91,41.028" fill="none" stroke="#000" stroke-linecap="round" stroke-linejoin="round" stroke-width="2"/>
    </g>
    <g id="Group_1009" data-name="Group 1009">
      <path id="Path_2294" data-name="Path 2294" d="M42.562,61.468a36.565,36.565,0,0,0-16.99,16.673" fill="none" stroke="#000" stroke-linecap="round" stroke-linejoin="round" stroke-width="2"/>
      <path id="Path_2295" data-name="Path 2295" d="M20.586,76.323S25.5,68.461,30,65.269a48.477,48.477,0,0,1-13.376,2.16" fill="none" stroke="#000" stroke-linecap="round" stroke-linejoin="round" stroke-width="2"/>
      <path id="Path_2296" data-name="Path 2296" d="M15.083,61.777s14.783,1.55,23.02-4.908" fill="none" stroke="#000" stroke-linecap="round" stroke-linejoin="round" stroke-width="2"/>
    </g>
    <ellipse id="Ellipse_62" data-name="Ellipse 62" cx="4.46" cy="3.448" rx="4.46" ry="3.448" transform="translate(38.102 15.041)" fill="none" stroke="#000" stroke-linecap="round" stroke-linejoin="round" stroke-width="2"/>
    <g id="Group_1010" data-name="Group 1010">
      <path id="Path_2297" data-name="Path 2297" d="M65.154,47.965V81.3a4.379,4.379,0,0,1-4.376,4.376H60.7A4.373,4.373,0,0,1,56.327,81.3V18.49" fill="none" stroke="#000" stroke-linecap="round" stroke-linejoin="round" stroke-width="2"/>
      <line id="Line_129" data-name="Line 129" y1="21.156" transform="translate(65.154 18.49)" fill="none" stroke="#000" stroke-linecap="round" stroke-linejoin="round" stroke-width="2"/>
      <ellipse id="Ellipse_63" data-name="Ellipse 63" cx="4.417" cy="3.448" rx="4.417" ry="3.448" transform="translate(56.323 15.041)" fill="none" stroke="#000" stroke-linecap="round" stroke-linejoin="round" stroke-width="2"/>
    </g>
    <path id="Path_2298" data-name="Path 2298" d="M61.683,43.428a17.208,17.208,0,0,1,8.839-6.734c2.039-.648,4.149-1.088,6.122-1.917a18.468,18.468,0,0,0,9.926-10.36" fill="none" stroke="#000" stroke-linecap="round" stroke-linejoin="round" stroke-width="2"/>
    <path id="Path_2299" data-name="Path 2299" d="M65.154,47.965a21.015,21.015,0,0,1,5.891-4.313c3.631-1.924,5.735-1.877,8.762-3.263,3.311-1.528,7.6-3.773,11.271-11.234" fill="none" stroke="#000" stroke-linecap="round" stroke-linejoin="round" stroke-width="2"/>
    <path id="Path_2300" data-name="Path 2300" d="M13.511,50.621S19.837,41.755,30,41.027" fill="none" stroke="#000" stroke-linecap="round" stroke-linejoin="round" stroke-width="2"/>
    <path id="Path_2301" data-name="Path 2301" d="M19.994,51.21a13.641,13.641,0,0,1-1.726-5.367" fill="none" stroke="#000" stroke-linecap="round" stroke-linejoin="round" stroke-width="2"/>
    <path id="Path_2302" data-name="Path 2302" d="M27.71,16.818a23.18,23.18,0,0,0,3.5,16.922" fill="none" stroke="#000" stroke-linecap="round" stroke-linejoin="round" stroke-width="2"/>
    <path id="Path_2303" data-name="Path 2303" d="M74.8,20.942s3.311,7.9.066,14.478" fill="none" stroke="#000" stroke-linecap="round" stroke-linejoin="round" stroke-width="2"/>
    <path id="Path_2304" data-name="Path 2304" d="M69.971,25.034s1.3,2.687,6.322,3.694" fill="none" stroke="#000" stroke-linecap="round" stroke-linejoin="round" stroke-width="2"/>
    <path id="Path_2305" data-name="Path 2305" d="M82.755,51.814c-.972-6.338-5.706-8.479-9.6-9.149" fill="none" stroke="#000" stroke-linecap="round" stroke-linejoin="round" stroke-width="2"/>
    <path id="Path_2306" data-name="Path 2306" d="M47.022,39.1a41.87,41.87,0,0,1,9.3,9.6" fill="none" stroke="#000" stroke-linecap="round" stroke-linejoin="round" stroke-width="2"/>
    <path id="Path_2307" data-name="Path 2307" d="M47.026,47.187a25.638,25.638,0,0,1,9.3,17.336" fill="none" stroke="#000" stroke-linecap="round" stroke-linejoin="round" stroke-width="2"/>
    <circle id="Ellipse_64" data-name="Ellipse 64" cx="12.961" cy="12.961" r="12.961" transform="translate(52.196 63.036)" fill="#1b4acc" stroke="#000" stroke-linecap="round" stroke-linejoin="round" stroke-width="2"/>
    <ellipse id="Ellipse_65" data-name="Ellipse 65" cx="3.593" cy="2.379" rx="3.593" ry="2.379" transform="matrix(0.415, -0.91, 0.91, 0.415, 56.227, 74.926)" fill="#1b4acc"/>
    <ellipse id="Ellipse_66" data-name="Ellipse 66" cx="2.379" cy="3.593" rx="2.379" ry="3.593" transform="matrix(0.887, -0.461, 0.461, 0.887, 66.28, 78.022)" fill="#1b4acc"/>
    <ellipse id="Ellipse_67" data-name="Ellipse 67" cx="2.379" cy="3.593" rx="2.379" ry="3.593" transform="translate(65.297 72.288) rotate(-71.994)" fill="#1b4acc"/>
    <ellipse id="Ellipse_68" data-name="Ellipse 68" cx="3.593" cy="2.379" rx="3.593" ry="2.379" transform="translate(56.971 79.117)" fill="#1b4acc"/>
  </g>
</svg>
