<svg xmlns="http://www.w3.org/2000/svg" width="59.469" height="78.426" viewBox="0 0 59.469 78.426">
  <g id="medicare-img2" transform="translate(-21.265 -12.579)">
    <path id="Path_2359" data-name="Path 2359" d="M29.9,81.29H72.1a7.635,7.635,0,0,1,7.631,7.631V90H22.265V88.921A7.635,7.635,0,0,1,29.9,81.29Z" fill="none" stroke="#000" stroke-linecap="round" stroke-linejoin="round" stroke-width="2"/>
    <path id="Path_2360" data-name="Path 2360" d="M57.305,81.043H32.51l2.622-6.672H55.745" fill="none" stroke="#000" stroke-linecap="round" stroke-linejoin="round" stroke-width="2"/>
    <g id="Group_1029" data-name="Group 1029">
      <rect id="Rectangle_2785" data-name="Rectangle 2785" width="37.626" height="16.564" transform="translate(35.08 45.229) rotate(-45)" fill="none" stroke="#000" stroke-linecap="round" stroke-linejoin="round" stroke-width="2"/>
      <rect id="Rectangle_2786" data-name="Rectangle 2786" width="6.258" height="8.808" transform="translate(33.396 52.397) rotate(-45)" fill="none" stroke="#000" stroke-linecap="round" stroke-linejoin="round" stroke-width="2"/>
      <rect id="Rectangle_2787" data-name="Rectangle 2787" width="4.678" height="7.335" transform="translate(64.952 21.881) rotate(-45)" fill="#1b4acc" stroke="#000" stroke-linecap="round" stroke-linejoin="round" stroke-width="2"/>
      <rect id="Rectangle_2788" data-name="Rectangle 2788" width="4.678" height="10.935" transform="translate(66.988 17.301) rotate(-45)" fill="none" stroke="#000" stroke-linecap="round" stroke-linejoin="round" stroke-width="2"/>
    </g>
    <path id="Path_2361" data-name="Path 2361" d="M65.865,37.876a22.433,22.433,0,0,1-8.56,43.167" fill="none" stroke="#000" stroke-linecap="round" stroke-linejoin="round" stroke-width="2"/>
    <path id="Path_2362" data-name="Path 2362" d="M60.067,43.664a15.76,15.76,0,0,1-5,30.708" fill="none" stroke="#000" stroke-linecap="round" stroke-linejoin="round" stroke-width="2"/>
    <circle id="Ellipse_97" data-name="Ellipse 97" cx="6.75" cy="6.75" r="6.75" transform="translate(57.305 33.854)" fill="#1b4acc" stroke="#000" stroke-linecap="round" stroke-linejoin="round" stroke-width="2"/>
    <line id="Line_210" data-name="Line 210" x2="15.798" transform="translate(35.972 69.957)" stroke="#000" stroke-linecap="round" stroke-linejoin="round" stroke-width="2"/>
  </g>
</svg>
