<svg xmlns="http://www.w3.org/2000/svg" width="77.23" height="75.5" viewBox="0 0 77.23 75.5">
  <g id="Success" transform="translate(-13.757 -14)">
    <path id="Path_2015" data-name="Path 2015" d="M17.3,26.5l4.6,13.4,5-12.1Z" fill="#1b4acc"/>
    <path id="Path_2016" data-name="Path 2016" d="M25.8,27.9l7.8,11.5,1.6-13.7Z" fill="#1b4acc"/>
    <path id="Path_2017" data-name="Path 2017" d="M33.7,26l12,7.7L41.9,21Z" fill="#1b4acc"/>
    <path id="Path_2019" data-name="Path 2019" d="M72,72.1l-2.5,14,10.3-8.3Z" fill="#1b4acc"/>
    <path id="Path_2020" data-name="Path 2020" d="M77.5,77.2,80.7,89l6.4-10.6Z" fill="#1b4acc"/>
    <path id="Path_2014" data-name="Path 2014" d="M15,26.7a29.932,29.932,0,0,0,14.7.6A29.809,29.809,0,0,0,45,18.8" fill="none" stroke="#000" stroke-linecap="round" stroke-linejoin="round" stroke-width="2"/>
    <path id="Path_2012" data-name="Path 2012" d="M75.3,14,77,17.6l3.9.6-2.8,2.7.7,3.9L75.3,23l-3.5,1.8.6-3.9-2.8-2.7,3.9-.6Z" fill="#1b4acc"/>
    <path id="Path_2013" data-name="Path 2013" d="M46.6,78.7l1.8,3.5,3.9.6-2.8,2.8.6,3.9-3.5-1.9-3.5,1.9.7-3.9L41,82.8l3.9-.6Z" fill="#1b4acc"/>
    <path id="Path_2018" data-name="Path 2018" d="M69.8,71.1a20.232,20.232,0,0,0,8.9,6.1c5.7,1.9,8.3,1.2,11.1.6" fill="none" stroke="#000" stroke-linecap="round" stroke-linejoin="round" stroke-width="2"/>
    <path id="Path_2021" data-name="Path 2021" d="M84.3,67.1A3.3,3.3,0,1,0,81,63.8,3.3,3.3,0,0,0,84.3,67.1Z" fill="none" stroke="#000" stroke-linecap="round" stroke-linejoin="round" stroke-width="2"/>
    <path id="Path_2022" data-name="Path 2022" d="M22.2,48.8a3.344,3.344,0,0,1-3.5,5.7" fill="none" stroke="#000" stroke-linecap="round" stroke-linejoin="round" stroke-width="2"/>
    <path id="Path_2023" data-name="Path 2023" d="M72.8,37.2l3.9-2.7a2.372,2.372,0,0,1,2.7,3.9l-3.9,2.7" fill="none" stroke="#000" stroke-linecap="round" stroke-linejoin="round" stroke-width="2"/>
    <path id="Path_2024" data-name="Path 2024" d="M74.5,41.8l3.9-2.7A2.372,2.372,0,0,1,81.1,43l-3.9,2.7" fill="none" stroke="#000" stroke-linecap="round" stroke-linejoin="round" stroke-width="2"/>
    <path id="Path_2025" data-name="Path 2025" d="M75.4,46.9l3.9-2.7A2.372,2.372,0,0,1,82,48.1l-9.1,6.1c-.8.5-1.6,1-2.4,1.4l-7.2,3.7" fill="none" stroke="#000" stroke-linecap="round" stroke-linejoin="round" stroke-width="2"/>
    <path id="Path_2026" data-name="Path 2026" d="M55.3,47.5l3.2-6.1a7.4,7.4,0,0,0,.4-6L56.5,29a1.991,1.991,0,0,1,1.4-2.6h.2A4.316,4.316,0,0,1,62.9,29l2.9,7.2,9.1-6.1a2.476,2.476,0,0,1,3.3.6,2.319,2.319,0,0,1,.4,1.8,2.263,2.263,0,0,1-1,1.5l-3.9,2.7" fill="none" stroke="#000" stroke-linecap="round" stroke-linejoin="round" stroke-width="2"/>
    <path id="Path_2027" data-name="Path 2027" d="M53.033,44.15l-11.52,7.777L53.6,69.829l11.52-7.777Z" fill="none" stroke="#000" stroke-linecap="round" stroke-linejoin="round" stroke-width="2"/>
    <path id="Path_2028" data-name="Path 2028" d="M26.8,86.8l25.5-19L43,54.1,15.9,70.7Z" fill="none" stroke="#000" stroke-linecap="round" stroke-linejoin="round" stroke-width="2"/>
    <path id="Path_2029" data-name="Path 2029" d="M56.6,62.6H55.1A1.11,1.11,0,0,1,54,61.5V60a1.11,1.11,0,0,1,1.1-1.1h1.5A1.11,1.11,0,0,1,57.7,60v1.5A1.11,1.11,0,0,1,56.6,62.6Z"/>
  </g>
</svg>
