<svg id="Layer_1" data-name="Layer 1" xmlns="http://www.w3.org/2000/svg" viewBox="0 0 76.8 51.46"><defs><style>.cls-1{fill:#fdb71a;}.cls-2{fill:#fff;}.cls-3{fill:#f05323;}.cls-4{fill:#482d8b;}</style></defs><rect class="cls-1" y="25.73" width="25.73" height="25.73"/><path class="cls-2" d="M12.86,44.52a.71.71,0,0,1-.31-.08c-.26-.14-6.4-3.45-6.4-7.32a4,4,0,0,1,3.92-4,3.89,3.89,0,0,1,2.79,1.2,3.9,3.9,0,0,1,6.71,2.78c0,4.39-6.17,7.22-6.43,7.34A.67.67,0,0,1,12.86,44.52Zm-2.79-10A2.6,2.6,0,0,0,7.5,37.12c0,2.4,3.64,5,5.38,6,1.17-.59,5.35-2.93,5.35-6a2.6,2.6,0,0,0-2.57-2.63,2.56,2.56,0,0,0-2.21,1.29.7.7,0,0,1-1.17,0A2.53,2.53,0,0,0,10.07,34.49Z"/><rect class="cls-3" x="25.73" y="25.73" width="51.07" height="25.73"/><path class="cls-2" d="M71.15,40.68V39.61h-4v1.07h1.39V47h1.24V40.68Zm-4.82-1.07H65.07V47h1.26ZM63.65,47V39.61H62.56v5.28h0l-2.09-5.28H59V47h1.14l0-5.25h0L62.27,47Zm-6-2.63v-4.8H56.4v4.68a4.92,4.92,0,0,1,0,.67,1.84,1.84,0,0,1-.17.56.94.94,0,0,1-.33.38.91.91,0,0,1-.54.14.89.89,0,0,1-.53-.14.94.94,0,0,1-.33-.38,1.84,1.84,0,0,1-.17-.56,4.91,4.91,0,0,1,0-.67V39.61H53v4.8a4.82,4.82,0,0,0,.12,1.1,2.63,2.63,0,0,0,.4.9,2.11,2.11,0,0,0,.72.6,2.34,2.34,0,0,0,1.08.22A2.41,2.41,0,0,0,56.39,47a2.05,2.05,0,0,0,.73-.6,2.65,2.65,0,0,0,.41-.9,4.82,4.82,0,0,0,.12-1.1M49.9,47V45.92H47.68v-2.2h2v-1h-2v-2H49.8V39.61H46.47V47Zm-6.07-4.38a1.06,1.06,0,0,1-.76.29h-.72V40.66h.72a1.28,1.28,0,0,1,.38.05.8.8,0,0,1,.34.18.87.87,0,0,1,.24.34,1.34,1.34,0,0,1,.1.56,1.16,1.16,0,0,1-.3.87M45.54,47,44.2,43.62a1.29,1.29,0,0,0,.41-.2,1.44,1.44,0,0,0,.37-.37,2.25,2.25,0,0,0,.28-.56,2.49,2.49,0,0,0,.11-.76,2.54,2.54,0,0,0-.16-1,1.78,1.78,0,0,0-.44-.66,1.66,1.66,0,0,0-.66-.38,2.86,2.86,0,0,0-.85-.12H41.14V47h1.21V43.87h.71L44.21,47Zm-7-2.56H36.86l.81-3.69h0ZM40.33,47l-1.81-7.43H36.91L35.06,47h1.26l.38-1.57h1.95L39,47Zm-5.69-.8-.72-.85a1.68,1.68,0,0,1-.45.47,1.11,1.11,0,0,1-.63.18,1.12,1.12,0,0,1-.68-.21,1.74,1.74,0,0,1-.48-.58,3.07,3.07,0,0,1-.28-.87,5.09,5.09,0,0,1-.1-1.06,5.16,5.16,0,0,1,.1-1.06,3.07,3.07,0,0,1,.28-.87,1.71,1.71,0,0,1,.47-.58,1.09,1.09,0,0,1,.66-.22,1.32,1.32,0,0,1,1.12.62l.72-.88a2,2,0,0,0-.79-.68,2.6,2.6,0,0,0-1.12-.23,2.19,2.19,0,0,0-1.13.29,2.46,2.46,0,0,0-.86.81,3.87,3.87,0,0,0-.56,1.23,6.58,6.58,0,0,0,0,3.14,4.1,4.1,0,0,0,.55,1.23,2.59,2.59,0,0,0,.86.82,2.3,2.3,0,0,0,1.14.29A2.22,2.22,0,0,0,33.89,47a2.16,2.16,0,0,0,.75-.72"/><path class="cls-2" d="M64.68,37,64,36.18a1.92,1.92,0,0,1-.44.46,1.12,1.12,0,0,1-.64.19,1.09,1.09,0,0,1-.68-.22,1.52,1.52,0,0,1-.47-.58,3.17,3.17,0,0,1-.29-.87,5.87,5.87,0,0,1-.09-1A6.1,6.1,0,0,1,61.43,33a3.21,3.21,0,0,1,.29-.86,1.64,1.64,0,0,1,.47-.59,1.08,1.08,0,0,1,.66-.21A1.28,1.28,0,0,1,64,32l.73-.89a2.13,2.13,0,0,0-.79-.67,2.49,2.49,0,0,0-1.12-.24,2.26,2.26,0,0,0-1.13.29,2.58,2.58,0,0,0-.87.81,4,4,0,0,0-.55,1.24A6,6,0,0,0,60,34.11a5.85,5.85,0,0,0,.19,1.56,4,4,0,0,0,.55,1.24,2.66,2.66,0,0,0,.86.81,2.2,2.2,0,0,0,1.14.29,2.25,2.25,0,0,0,1.15-.27,2.42,2.42,0,0,0,.75-.71m-6.79-1.77H56.25l.81-3.68h0Zm1.83,2.57-1.81-7.44H56.3l-1.85,7.44h1.26l.38-1.58H58l.37,1.58Zm-6.07-7.44H52.39v7.44h1.26Zm-3.78,4.87a2.63,2.63,0,0,1-.34.81,1.53,1.53,0,0,1-.53.49,1.34,1.34,0,0,1-.66.16h-.6V31.49h.6a1.35,1.35,0,0,1,.66.17,1.5,1.5,0,0,1,.53.48,2.7,2.7,0,0,1,.34.82A5,5,0,0,1,50,34.12a4.86,4.86,0,0,1-.12,1.14m.64-3.89a2.56,2.56,0,0,0-2.17-1H46.47v7.44h1.86a2.57,2.57,0,0,0,2.18-1,4.43,4.43,0,0,0,.74-2.73,4.52,4.52,0,0,0-.74-2.75m-6.68,2.07a1.06,1.06,0,0,1-.76.29h-.72V31.44h.72a1.73,1.73,0,0,1,.38,0,1.11,1.11,0,0,1,.34.18A.91.91,0,0,1,44,32a1.29,1.29,0,0,1,.1.55,1.15,1.15,0,0,1-.3.87m1.71,4.39L44.2,34.4a1.26,1.26,0,0,0,.41-.19,1.85,1.85,0,0,0,.37-.37,2.52,2.52,0,0,0,.28-.57,2.49,2.49,0,0,0,.11-.76,2.45,2.45,0,0,0-.16-.95,1.74,1.74,0,0,0-.44-.67,1.66,1.66,0,0,0-.66-.38,2.86,2.86,0,0,0-.85-.12H41.14v7.44h1.21V34.65h.71l1.15,3.18Zm-7-2.57H36.86l.81-3.68h0Zm1.83,2.57-1.81-7.44H36.91l-1.85,7.44h1.26l.38-1.58h1.95L39,37.83ZM34.64,37l-.72-.85a1.79,1.79,0,0,1-.45.46,1.12,1.12,0,0,1-.63.19,1.07,1.07,0,0,1-.68-.22,1.64,1.64,0,0,1-.48-.58,2.87,2.87,0,0,1-.28-.87,5.06,5.06,0,0,1-.1-1A5.25,5.25,0,0,1,31.4,33a2.9,2.9,0,0,1,.28-.86,1.75,1.75,0,0,1,.47-.59,1.08,1.08,0,0,1,.66-.21,1.3,1.3,0,0,1,1.12.62l.72-.89a2,2,0,0,0-.79-.67,2.46,2.46,0,0,0-1.12-.24,2.29,2.29,0,0,0-1.13.29,2.46,2.46,0,0,0-.86.81,4,4,0,0,0-.56,1.24A6,6,0,0,0,30,34.11a5.85,5.85,0,0,0,.19,1.56,4.28,4.28,0,0,0,.55,1.24,2.66,2.66,0,0,0,.86.81,2.2,2.2,0,0,0,1.14.29,2.12,2.12,0,0,0,1.9-1"/><rect class="cls-4" width="76.8" height="25.73"/><path class="cls-2" d="M71.24,7.53A3.56,3.56,0,0,0,70,6.6a4.54,4.54,0,0,0-1.74-.31,4,4,0,0,0-1.32.22,3.53,3.53,0,0,0-1.16.7,3.4,3.4,0,0,0-.83,1.18,4.24,4.24,0,0,0-.32,1.71,3.93,3.93,0,0,0,.21,1.36,3.19,3.19,0,0,0,.56,1,3.31,3.31,0,0,0,.81.73,6.72,6.72,0,0,0,1,.56,6.23,6.23,0,0,1,1.38.91A1.67,1.67,0,0,1,69.06,16a1.82,1.82,0,0,1-.45,1.32,1.54,1.54,0,0,1-1.14.47,2.72,2.72,0,0,1-1.2-.29,3,3,0,0,1-1-.79l-1.18,1.59a4.1,4.1,0,0,0,1.45,1,4.57,4.57,0,0,0,2,.42,4.1,4.1,0,0,0,1.41-.25,3.26,3.26,0,0,0,1.17-.75,3.83,3.83,0,0,0,.79-1.22,4.31,4.31,0,0,0,.3-1.66,3.78,3.78,0,0,0-.25-1.41,3.69,3.69,0,0,0-.65-1,4.49,4.49,0,0,0-.89-.74q-.48-.3-1-.54a6.45,6.45,0,0,1-1.28-.84A1.62,1.62,0,0,1,66.66,10a2.24,2.24,0,0,1,.13-.82,1.43,1.43,0,0,1,.89-.87,1.8,1.8,0,0,1,.6-.1,2.2,2.2,0,0,1,1.77.85ZM59.29,11.86a1.82,1.82,0,0,1-1.31.49H56.75V8.42H58a2.43,2.43,0,0,1,.65.09,1.52,1.52,0,0,1,.59.31,1.57,1.57,0,0,1,.42.59,2.41,2.41,0,0,1,.16,1,2,2,0,0,1-.51,1.49m2.93,7.53-2.29-5.88a2,2,0,0,0,.69-.34,2.43,2.43,0,0,0,.64-.64,3.08,3.08,0,0,0,.48-1,4.06,4.06,0,0,0,.19-1.31,4.43,4.43,0,0,0-.27-1.64,3.06,3.06,0,0,0-.75-1.14,3,3,0,0,0-1.14-.66,4.93,4.93,0,0,0-1.47-.21H54.66V19.39h2.09V13.94H58l2,5.45Zm-10.5,0V17.46H47.89V13.69h3.37V11.92H47.89V8.53h3.65V6.61H45.81V19.39ZM43.33,8.46V6.61H36.4V8.46h2.4V19.39h2.13V8.46Zm-9.4,10.93V6.61H32.05l0,9.08H32L28.42,6.61H26V19.39H27.9l0-9h.05l3.63,9ZM23,19.39V17.46H19.18V13.69h3.37V11.92H19.18V8.53h3.65V6.61H17.1V19.39ZM14.48,18l-1.25-1.46a2.86,2.86,0,0,1-.76.79,1.86,1.86,0,0,1-1.1.33,1.93,1.93,0,0,1-1.16-.37,2.81,2.81,0,0,1-.82-1,5.43,5.43,0,0,1-.49-1.49A9.63,9.63,0,0,1,8.74,13a9.67,9.67,0,0,1,.16-1.83,5.43,5.43,0,0,1,.49-1.49,2.9,2.9,0,0,1,.81-1,1.79,1.79,0,0,1,1.14-.37,2.24,2.24,0,0,1,1.91,1.07L14.5,7.86A3.4,3.4,0,0,0,13.14,6.7a4.22,4.22,0,0,0-1.93-.41,3.87,3.87,0,0,0-1.94.5A4.47,4.47,0,0,0,7.78,8.18a7,7,0,0,0-1,2.12A10.51,10.51,0,0,0,6.5,13a10.32,10.32,0,0,0,.33,2.69,7.24,7.24,0,0,0,.94,2.12,4.48,4.48,0,0,0,1.48,1.4,3.85,3.85,0,0,0,2,.51,3.84,3.84,0,0,0,2-.47A4,4,0,0,0,14.48,18"/></svg>