<svg xmlns="http://www.w3.org/2000/svg" xmlns:xlink="http://www.w3.org/1999/xlink" width="134.833" height="48.466" viewBox="0 0 134.833 48.466">
  <defs>
    <clipPath id="clip-path">
      <rect id="Rectangle_2705" data-name="Rectangle 2705" width="134.833" height="48.466" fill="none"/>
    </clipPath>
  </defs>
  <g id="logo" transform="translate(0 0)">
    <path id="Path_2213" data-name="Path 2213" d="M186.53,208.77H197.8l-2.978,5.2-2.978,5.2-2.978-5.2-2.978-5.2Z" transform="translate(-152.563 -171.345)" fill="#003e93" fill-rule="evenodd"/>
    <path id="Path_2214" data-name="Path 2214" d="M155.308,144.225l-2.978,5.2-2.978-5.2-2.978-5.2h11.912Z" transform="translate(-120.134 -114.106)" fill="#003e93" fill-rule="evenodd"/>
    <path id="Path_2215" data-name="Path 2215" d="M191.842,153.5h-5.956l2.978-5.2,2.978-5.2,2.978,5.2,2.978,5.2Z" transform="translate(-152.563 -117.451)" fill="#003e93" fill-rule="evenodd"/>
    <path id="Path_2216" data-name="Path 2216" d="M228.825,217.588l-2.978,5.2h11.912l-2.978-5.2-2.978-5.2Z" transform="translate(-185.361 -174.318)" fill="#003e93"/>
    <path id="Path_2217" data-name="Path 2217" d="M0,0,2.978,5.2l2.978,5.2L8.934,5.2,11.912,0Z" transform="translate(0 0)" fill="#505050"/>
    <path id="Path_2218" data-name="Path 2218" d="M85.429,73.364l-2.978,5.2-2.978,5.2H91.385l-2.978-5.2Z" transform="translate(-65.226 -60.212)" fill="#505050" fill-rule="evenodd"/>
    <path id="Path_2219" data-name="Path 2219" d="M45.917,14.467h5.956L48.9,9.272l-2.978-5.2-2.978,5.2-2.978,5.2Z" transform="translate(-32.797 -3.345)" fill="#505050" fill-rule="evenodd"/>
    <path id="Path_2220" data-name="Path 2220" d="M45.917,80.132l2.978-5.2,2.978-5.2H39.961l2.978,5.2Z" transform="translate(-32.797 -57.239)" fill="#505050" fill-rule="evenodd"/>
    <path id="Path_2221" data-name="Path 2221" d="M51.31,208.77H39.961l2.978,5.2,2.978,5.2,2.978-5.2,2.978-5.2Z" transform="translate(-32.797 -171.345)" fill="#505050" fill-rule="evenodd"/>
    <path id="Path_2222" data-name="Path 2222" d="M45.917,153.5h5.956L48.9,148.3l-2.978-5.2-2.978,5.2-2.978,5.2Z" transform="translate(-32.797 -117.451)" fill="#505050" fill-rule="evenodd"/>
    <path id="Path_2223" data-name="Path 2223" d="M82.9,144.225l2.978,5.2,2.978-5.2,2.978-5.2H79.922Z" transform="translate(-65.595 -114.106)" fill="#505050" fill-rule="evenodd"/>
    <path id="Path_2224" data-name="Path 2224" d="M151.881,73.364l2.978,5.2,2.978,5.2H145.925l2.978-5.2Z" transform="translate(-119.766 -60.212)" fill="#003e93" fill-rule="evenodd"/>
    <path id="Path_2225" data-name="Path 2225" d="M225.847,0l2.978,5.2,2.9,5.2L234.7,5.2,237.679,0Z" transform="translate(-185.361 0)" fill="#003e93"/>
    <path id="Path_2226" data-name="Path 2226" d="M191.842,14.467h-5.956l2.978-5.2,2.978-5.2,2.978,5.2,2.978,5.2Z" transform="translate(-152.563 -3.345)" fill="#003e93" fill-rule="evenodd"/>
    <path id="Path_2227" data-name="Path 2227" d="M191.842,80.132l-2.978-5.2-2.978-5.2H197.8l-2.978,5.2Z" transform="translate(-152.563 -57.239)" fill="#003e93" fill-rule="evenodd"/>
    <path id="Path_2228" data-name="Path 2228" d="M2.978,217.588h.08L0,222.784H11.912l-2.978-5.2-2.978-5.2Z" transform="translate(0 -174.318)" fill="#505050"/>
    <g id="Group_989" data-name="Group 989" transform="translate(0 0)">
      <g id="Group_988" data-name="Group 988" clip-path="url(#clip-path)">
        <path id="Path_2229" data-name="Path 2229" d="M280.5,84.917H264.9c.575,2.568,2.759,4.139,5.9,4.139a6.99,6.99,0,0,0,5.174-1.993l3.181,3.449c-1.916,2.185-4.79,3.334-8.508,3.334-7.128,0-11.766-4.484-11.766-10.616,0-6.17,4.714-10.616,11-10.616,6.055,0,10.731,4.062,10.731,10.693,0,.46-.077,1.111-.115,1.61M264.823,81.43h10.156a5.15,5.15,0,0,0-10.156,0" transform="translate(-212.474 -59.598)" fill="#003e93"/>
        <path id="Path_2230" data-name="Path 2230" d="M415.129,72.615v5.519c-.5-.038-.881-.076-1.341-.076-3.3,0-5.48,1.8-5.48,5.749V93.54h-5.979V72.922h5.711v2.721c1.456-1.993,3.909-3.028,7.09-3.028" transform="translate(-330.206 -59.598)" fill="#003e93"/>
        <path id="Path_2231" data-name="Path 2231" d="M483.993,83.231c0-6.209,4.791-10.616,11.344-10.616s11.306,4.407,11.306,10.616-4.752,10.616-11.306,10.616-11.344-4.407-11.344-10.616m16.595,0c0-3.564-2.261-5.71-5.25-5.71s-5.289,2.146-5.289,5.71,2.3,5.71,5.289,5.71,5.25-2.146,5.25-5.71" transform="translate(-397.23 -59.598)" fill="#003e93"/>
        <path id="Path_2232" data-name="Path 2232" d="M653.648,81.736v11.8h-5.979V82.656c0-3.334-1.533-4.867-4.177-4.867-2.874,0-4.944,1.763-4.944,5.557V93.54H632.57V72.922h5.71v2.415a9.028,9.028,0,0,1,6.822-2.721c4.867,0,8.546,2.836,8.546,9.121" transform="translate(-519.173 -59.598)" fill="#003e93"/>
        <path id="Path_2233" data-name="Path 2233" d="M284.593,209.376a3.03,3.03,0,0,1,5.216-1.944l-.672.632a1.967,1.967,0,0,0-1.5-.656,1.968,1.968,0,1,0,0,3.936,1.948,1.948,0,0,0,1.5-.664l.672.64a3.03,3.03,0,0,1-5.216-1.944" transform="translate(-233.576 -169.479)" fill="#505050"/>
        <rect id="Rectangle_2703" data-name="Rectangle 2703" width="1" height="5.936" transform="translate(57.163 36.761)" fill="#505050"/>
        <path id="Path_2234" data-name="Path 2234" d="M331.148,204.327a.609.609,0,0,1,.64-.6.6.6,0,0,1,.64.576.641.641,0,0,1-1.28.024m.136,1.3h1V209.9h-1Z" transform="translate(-271.785 -167.206)" fill="#505050"/>
        <path id="Path_2235" data-name="Path 2235" d="M349.147,215.954V218.4h-1v-2.32c0-.76-.376-1.128-1.016-1.128a1.135,1.135,0,0,0-1.192,1.288v2.16h-1V214.13h.952v.552a1.857,1.857,0,0,1,1.472-.6,1.67,1.67,0,0,1,1.784,1.872" transform="translate(-283.104 -175.705)" fill="#505050"/>
        <path id="Path_2236" data-name="Path 2236" d="M374.891,204.327a.609.609,0,0,1,.64-.6.6.6,0,0,1,.64.576.641.641,0,0,1-1.28.024m.136,1.3h1V209.9h-1Z" transform="translate(-307.686 -167.206)" fill="#505050"/>
        <path id="Path_2237" data-name="Path 2237" d="M386.718,216.266a2.162,2.162,0,0,1,2.312-2.184,1.923,1.923,0,0,1,1.824.992l-.768.448a1.209,1.209,0,0,0-1.064-.592,1.337,1.337,0,0,0,0,2.672,1.209,1.209,0,0,0,1.064-.592l.768.448a1.942,1.942,0,0,1-1.824,1,2.168,2.168,0,0,1-2.312-2.192" transform="translate(-317.393 -175.705)" fill="#505050"/>
        <path id="Path_2238" data-name="Path 2238" d="M416.934,215.9v2.5h-.944v-.52a1.514,1.514,0,0,1-1.344.576c-.976,0-1.592-.536-1.592-1.28,0-.712.48-1.272,1.776-1.272h1.1v-.064c0-.584-.352-.928-1.064-.928a2.115,2.115,0,0,0-1.3.424l-.392-.728a3.006,3.006,0,0,1,1.808-.528c1.232,0,1.944.584,1.944,1.816m-1,1.168v-.5H414.9c-.68,0-.864.256-.864.568,0,.36.3.592.816.592a1.089,1.089,0,0,0,1.08-.664" transform="translate(-339.008 -175.705)" fill="#505050"/>
        <rect id="Rectangle_2704" data-name="Rectangle 2704" width="1" height="5.936" transform="translate(79.231 36.761)" fill="#505050"/>
        <path id="Path_2239" data-name="Path 2239" d="M468,206.942h1.04v4.72h2.928v.88H468Z" transform="translate(-384.104 -169.844)" fill="#505050"/>
        <path id="Path_2240" data-name="Path 2240" d="M496.741,215.9v2.5H495.8v-.52a1.514,1.514,0,0,1-1.344.576c-.976,0-1.592-.536-1.592-1.28,0-.712.48-1.272,1.776-1.272h1.1v-.064c0-.584-.352-.928-1.064-.928a2.115,2.115,0,0,0-1.3.424l-.392-.728a3.005,3.005,0,0,1,1.808-.528c1.232,0,1.944.584,1.944,1.816m-1,1.168v-.5h-1.032c-.68,0-.864.256-.864.568,0,.36.3.592.816.592a1.089,1.089,0,0,0,1.08-.664" transform="translate(-404.508 -175.705)" fill="#505050"/>
        <path id="Path_2241" data-name="Path 2241" d="M526.321,208.867a2.081,2.081,0,0,1-2.168,2.192,1.761,1.761,0,0,1-1.416-.608V211h-.952v-5.936h1v2.184a1.776,1.776,0,0,1,1.368-.568,2.074,2.074,0,0,1,2.168,2.184m-1.016,0a1.27,1.27,0,1,0-1.264,1.336,1.243,1.243,0,0,0,1.264-1.336" transform="translate(-428.247 -168.306)" fill="#505050"/>
        <path id="Path_2242" data-name="Path 2242" d="M550.575,216.266a2.278,2.278,0,1,1,2.272,2.192,2.15,2.15,0,0,1-2.272-2.192m3.544,0a1.27,1.27,0,1,0-1.272,1.336,1.244,1.244,0,0,0,1.272-1.336" transform="translate(-451.876 -175.705)" fill="#505050"/>
        <path id="Path_2243" data-name="Path 2243" d="M583.934,214.082v.952a1.289,1.289,0,0,0-.232-.024,1.164,1.164,0,0,0-1.24,1.32V218.4h-1V214.13h.952v.624a1.681,1.681,0,0,1,1.52-.672" transform="translate(-477.226 -175.705)" fill="#505050"/>
        <path id="Path_2244" data-name="Path 2244" d="M602.171,215.9v2.5h-.944v-.52a1.514,1.514,0,0,1-1.344.576c-.976,0-1.592-.536-1.592-1.28,0-.712.48-1.272,1.776-1.272h1.1v-.064c0-.584-.352-.928-1.064-.928a2.115,2.115,0,0,0-1.3.424l-.392-.728a3.006,3.006,0,0,1,1.808-.528c1.232,0,1.944.584,1.944,1.816m-1,1.168v-.5h-1.032c-.68,0-.864.256-.864.568,0,.36.3.592.816.592a1.089,1.089,0,0,0,1.08-.664" transform="translate(-491.039 -175.705)" fill="#505050"/>
        <path id="Path_2245" data-name="Path 2245" d="M627.181,214.067a1.573,1.573,0,0,1-.96.288,1.313,1.313,0,0,1-1.472-1.44v-2.056h-.7v-.8h.7v-.976h1v.976h1.144v.8h-1.144v2.032c0,.416.208.64.592.64a.9.9,0,0,0,.56-.176Z" transform="translate(-512.176 -171.602)" fill="#505050"/>
        <path id="Path_2246" data-name="Path 2246" d="M643.506,216.266a2.278,2.278,0,1,1,2.272,2.192,2.15,2.15,0,0,1-2.272-2.192m3.544,0a1.27,1.27,0,1,0-1.272,1.336,1.244,1.244,0,0,0,1.272-1.336" transform="translate(-528.148 -175.705)" fill="#505050"/>
        <path id="Path_2247" data-name="Path 2247" d="M676.865,214.082v.952a1.287,1.287,0,0,0-.232-.024,1.164,1.164,0,0,0-1.24,1.32V218.4h-1V214.13h.952v.624a1.681,1.681,0,0,1,1.52-.672" transform="translate(-553.498 -175.705)" fill="#505050"/>
        <path id="Path_2248" data-name="Path 2248" d="M692.292,204.327a.61.61,0,0,1,.64-.6.6.6,0,0,1,.64.576.641.641,0,0,1-1.28.024m.136,1.3h1V209.9h-1Z" transform="translate(-568.188 -167.206)" fill="#505050"/>
        <path id="Path_2249" data-name="Path 2249" d="M708.473,216.586H705.12a1.293,1.293,0,0,0,1.384,1.024,1.532,1.532,0,0,0,1.16-.464l.536.616a2.4,2.4,0,0,1-4.08-1.5,2.125,2.125,0,0,1,2.208-2.184,2.083,2.083,0,0,1,2.16,2.208c0,.08-.008.2-.016.3m-3.361-.664h2.424a1.163,1.163,0,0,0-1.208-1.04,1.181,1.181,0,0,0-1.216,1.04" transform="translate(-577.896 -175.705)" fill="#505050"/>
        <path id="Path_2250" data-name="Path 2250" d="M731.261,217.978l.384-.76a2.875,2.875,0,0,0,1.488.424c.632,0,.9-.176.9-.472,0-.816-2.64-.048-2.64-1.752,0-.808.728-1.336,1.88-1.336a3.4,3.4,0,0,1,1.6.368l-.384.76a2.338,2.338,0,0,0-1.224-.32c-.608,0-.9.2-.9.48,0,.864,2.64.1,2.64,1.768,0,.8-.736,1.32-1.936,1.32a3.392,3.392,0,0,1-1.808-.48" transform="translate(-600.172 -175.705)" fill="#505050"/>
      </g>
    </g>
  </g>
</svg>
