<svg id="Group_967" data-name="Group 967" xmlns="http://www.w3.org/2000/svg" xmlns:xlink="http://www.w3.org/1999/xlink" width="193.6" height="51.471" viewBox="0 0 193.6 51.471">
  <defs>
    <clipPath id="clip-path">
      <rect id="Rectangle_524" data-name="Rectangle 524" width="193.6" height="51.471" fill="none"/>
    </clipPath>
  </defs>
  <g id="Group_966" data-name="Group 966" clip-path="url(#clip-path)">
    <path id="Path_1978" data-name="Path 1978" d="M28.588,2.791,24.073,24.636l6.8,27.551h-11.9a162.473,162.473,0,0,1-3.905-18q-.484,4.7-1.354,9.947l-1.209,8.054H0L4.668,24.636,0,2.791H12.418q.339,2.041,1.339,6.8.807,3.628,1.316,6.684L17.818,2.791Z" transform="translate(0 -1.754)" fill="#1b4acc"/>
    <path id="Path_1979" data-name="Path 1979" d="M182.956,2.791V42.3h7.811v9.885H170.111V2.791Z" transform="translate(-106.895 -1.754)" fill="#1b4acc"/>
    <path id="Path_1980" data-name="Path 1980" d="M243.954,2.835l2.868,5.071h.1L249.8,2.835h2.689l-4.012,6.923,4.076,6.924h-2.734l-2.9-5.037h-.1l-2.9,5.037H241.2l4.115-6.924-4.063-6.923Z" transform="translate(-151.566 -1.781)" fill="#1c262d"/>
    <path id="Path_1981" data-name="Path 1981" d="M277.011,22.508a4.755,4.755,0,0,1-2.534-.653A4.263,4.263,0,0,1,272.839,20a6.511,6.511,0,0,1-.572-2.83,6.506,6.506,0,0,1,.575-2.816,4.524,4.524,0,0,1,1.612-1.893,4.341,4.341,0,0,1,2.436-.68,4.744,4.744,0,0,1,1.707.308,3.9,3.9,0,0,1,1.425.95A4.517,4.517,0,0,1,281,14.675a6.986,6.986,0,0,1,.356,2.356v.751h-8.006v-1.65h5.8a2.777,2.777,0,0,0-.286-1.254,2.178,2.178,0,0,0-.779-.869,2.118,2.118,0,0,0-1.161-.318,2.16,2.16,0,0,0-1.24.362,2.472,2.472,0,0,0-.83.947,2.854,2.854,0,0,0-.3,1.281v1.44a3.536,3.536,0,0,0,.312,1.552,2.282,2.282,0,0,0,.871.987,2.462,2.462,0,0,0,1.31.342,2.582,2.582,0,0,0,.909-.152,1.962,1.962,0,0,0,.706-.45,1.9,1.9,0,0,0,.452-.737l2.149.257a3.634,3.634,0,0,1-.773,1.579,3.762,3.762,0,0,1-1.453,1.041,5.219,5.219,0,0,1-2.022.369" transform="translate(-171.087 -7.405)" fill="#1c262d"/>
    <path id="Path_1982" data-name="Path 1982" d="M301.145,22.283V11.9h2.232v1.731h.1a2.607,2.607,0,0,1,.919-1.389,2.418,2.418,0,0,1,1.492-.49c.127,0,.27.006.429.017a2.991,2.991,0,0,1,.4.051v2.252a2.406,2.406,0,0,0-.461-.1,4.387,4.387,0,0,0-.608-.044,2.22,2.22,0,0,0-1.129.287,2.075,2.075,0,0,0-.785.795,2.34,2.34,0,0,0-.286,1.169v6.105Z" transform="translate(-189.234 -7.383)" fill="#1c262d"/>
    <path id="Path_1983" data-name="Path 1983" d="M322.461,22.509a4.511,4.511,0,0,1-2.48-.669,4.429,4.429,0,0,1-1.625-1.873,6.45,6.45,0,0,1-.575-2.813,6.5,6.5,0,0,1,.575-2.819,4.422,4.422,0,0,1,1.625-1.88,4.929,4.929,0,0,1,4.96,0,4.428,4.428,0,0,1,1.625,1.88,6.5,6.5,0,0,1,.575,2.819,6.457,6.457,0,0,1-.575,2.813,4.435,4.435,0,0,1-1.625,1.873,4.511,4.511,0,0,1-2.48.669m.013-1.961a1.9,1.9,0,0,0,1.3-.456,2.742,2.742,0,0,0,.779-1.227,5.4,5.4,0,0,0,.258-1.717,5.451,5.451,0,0,0-.258-1.728,2.767,2.767,0,0,0-.779-1.234,1.889,1.889,0,0,0-1.3-.46,1.928,1.928,0,0,0-1.32.46,2.759,2.759,0,0,0-.782,1.234,5.452,5.452,0,0,0-.258,1.728,5.4,5.4,0,0,0,.258,1.717,2.734,2.734,0,0,0,.782,1.227,1.937,1.937,0,0,0,1.32.456" transform="translate(-199.687 -7.406)" fill="#1c262d"/>
    <path id="Path_1984" data-name="Path 1984" d="M349.523,16.221v6.085h-2.3V11.921h2.2v1.764h.115a2.927,2.927,0,0,1,1.077-1.386,3.143,3.143,0,0,1,1.835-.514,3.319,3.319,0,0,1,1.764.46,3.059,3.059,0,0,1,1.17,1.332,4.826,4.826,0,0,1,.41,2.116v6.612h-2.3V16.072a2.418,2.418,0,0,0-.506-1.629,1.743,1.743,0,0,0-1.4-.588,2.043,2.043,0,0,0-1.071.281,1.917,1.917,0,0,0-.731.808,2.829,2.829,0,0,0-.264,1.278" transform="translate(-218.187 -7.406)" fill="#1c262d"/>
    <path id="Path_1985" data-name="Path 1985" d="M253.894,54.845h-2.378a3.314,3.314,0,0,0-.375-1.106,2.945,2.945,0,0,0-.68-.821,2.841,2.841,0,0,0-.925-.511,3.515,3.515,0,0,0-1.116-.172,3.242,3.242,0,0,0-1.882.564,3.708,3.708,0,0,0-1.284,1.65,7.83,7.83,0,0,0,0,5.321,3.641,3.641,0,0,0,1.284,1.637,3.272,3.272,0,0,0,1.873.55,3.547,3.547,0,0,0,1.1-.165,2.879,2.879,0,0,0,1.615-1.288,3.154,3.154,0,0,0,.391-1.082l2.378.014a5.732,5.732,0,0,1-.575,1.853,5.426,5.426,0,0,1-1.154,1.524,5.164,5.164,0,0,1-1.666,1.028,5.842,5.842,0,0,1-2.118.368,5.646,5.646,0,0,1-3.065-.845,5.769,5.769,0,0,1-2.124-2.44,9.8,9.8,0,0,1,.006-7.657,5.817,5.817,0,0,1,2.13-2.437,5.627,5.627,0,0,1,3.052-.845,6.125,6.125,0,0,1,2.022.324,5.055,5.055,0,0,1,2.871,2.478,6.014,6.014,0,0,1,.62,2.059" transform="translate(-152.33 -31.409)" fill="#1c262d"/>
    <rect id="Rectangle_522" data-name="Rectangle 522" width="2.302" height="13.847" transform="translate(103.262 18.764)" fill="#1c262d"/>
    <path id="Path_1986" data-name="Path 1986" d="M290.463,51.349a1.294,1.294,0,0,1-.941-.389,1.317,1.317,0,0,1,0-1.879,1.337,1.337,0,0,1,1.886,0,1.329,1.329,0,0,1-.944,2.268m-1.158,1.474h2.3V63.208h-2.3Z" transform="translate(-181.682 -30.597)" fill="#1c262d"/>
    <path id="Path_1987" data-name="Path 1987" d="M303.644,63.88v6.085h-2.3V59.58h2.2v1.764h.115a2.93,2.93,0,0,1,1.077-1.386,3.145,3.145,0,0,1,1.835-.514,3.319,3.319,0,0,1,1.764.46,3.059,3.059,0,0,1,1.17,1.332,4.826,4.826,0,0,1,.41,2.116v6.612h-2.3V63.731a2.418,2.418,0,0,0-.506-1.629,1.743,1.743,0,0,0-1.4-.588,2.043,2.043,0,0,0-1.071.281,1.917,1.917,0,0,0-.731.808,2.83,2.83,0,0,0-.264,1.278" transform="translate(-189.357 -37.354)" fill="#1c262d"/>
    <path id="Path_1988" data-name="Path 1988" d="M330.645,51.349a1.294,1.294,0,0,1-.941-.389,1.317,1.317,0,0,1,0-1.879,1.334,1.334,0,0,1,2.277.943,1.273,1.273,0,0,1-.391.936,1.29,1.29,0,0,1-.944.389m-1.158,1.474h2.3V63.208h-2.3Z" transform="translate(-206.931 -30.597)" fill="#1c262d"/>
    <path id="Path_1989" data-name="Path 1989" d="M344.82,70.167a4.486,4.486,0,0,1-2.508-.683,4.436,4.436,0,0,1-1.609-1.89,7.138,7.138,0,0,1,.01-5.578,4.309,4.309,0,0,1,4.095-2.573,4.622,4.622,0,0,1,2.108.463,3.7,3.7,0,0,1,1.466,1.3A4.045,4.045,0,0,1,349,63.177h-2.2a2.307,2.307,0,0,0-.632-1.254,1.792,1.792,0,0,0-1.332-.5,2,2,0,0,0-1.24.4,2.588,2.588,0,0,0-.83,1.153,4.907,4.907,0,0,0-.3,1.8,5.071,5.071,0,0,0,.293,1.822,2.612,2.612,0,0,0,.823,1.169,2.116,2.116,0,0,0,2.162.2,1.839,1.839,0,0,0,.677-.6,2.392,2.392,0,0,0,.375-.954H349a4.235,4.235,0,0,1-.611,1.951,3.657,3.657,0,0,1-1.437,1.325,4.538,4.538,0,0,1-2.137.477" transform="translate(-213.737 -37.353)" fill="#1c262d"/>
    <path id="Path_1990" data-name="Path 1990" d="M370.141,70.175a3.82,3.82,0,0,1-1.669-.355,2.735,2.735,0,0,1-1.17-1.052,3.215,3.215,0,0,1-.429-1.717,3.079,3.079,0,0,1,.305-1.454,2.453,2.453,0,0,1,.833-.919,4.115,4.115,0,0,1,1.192-.524,9.383,9.383,0,0,1,1.377-.261q.858-.094,1.392-.172a1.941,1.941,0,0,0,.779-.243.581.581,0,0,0,.245-.517V62.92a1.587,1.587,0,0,0-.426-1.183,1.679,1.679,0,0,0-1.227-.419A2.091,2.091,0,0,0,370,61.71a1.933,1.933,0,0,0-.664.926l-2.149-.324a3.736,3.736,0,0,1,.839-1.585,3.679,3.679,0,0,1,1.431-.96,5.237,5.237,0,0,1,1.87-.321,5.756,5.756,0,0,1,1.405.176,3.878,3.878,0,0,1,1.278.578,2.916,2.916,0,0,1,.931,1.092,3.758,3.758,0,0,1,.353,1.724v6.95h-2.213V68.539h-.076a2.96,2.96,0,0,1-.588.808,2.788,2.788,0,0,1-.947.6,3.593,3.593,0,0,1-1.332.226m.6-1.8a2.361,2.361,0,0,0,1.2-.294,2.084,2.084,0,0,0,.786-.781A2.112,2.112,0,0,0,373,66.24V65.016a1.055,1.055,0,0,1-.366.176,5.234,5.234,0,0,1-.575.142q-.318.061-.63.108l-.541.081a3.839,3.839,0,0,0-.922.243,1.541,1.541,0,0,0-.642.47,1.218,1.218,0,0,0-.236.774,1.191,1.191,0,0,0,.465,1.021,1.93,1.93,0,0,0,1.182.345" transform="translate(-230.535 -37.354)" fill="#1c262d"/>
    <rect id="Rectangle_523" data-name="Rectangle 523" width="2.302" height="13.847" transform="translate(146.784 18.764)" fill="#1c262d"/>
    <path id="Path_1991" data-name="Path 1991" d="M243.306,112V98.152h2.359V109.9H251.4V112Z" transform="translate(-152.889 -61.677)" fill="#1c262d"/>
    <path id="Path_1992" data-name="Path 1992" d="M271.511,117.833a3.82,3.82,0,0,1-1.669-.355,2.734,2.734,0,0,1-1.17-1.052,3.215,3.215,0,0,1-.429-1.717,3.079,3.079,0,0,1,.305-1.454,2.452,2.452,0,0,1,.833-.919,4.126,4.126,0,0,1,1.192-.524,9.384,9.384,0,0,1,1.377-.261q.858-.094,1.392-.172a1.941,1.941,0,0,0,.779-.243.581.581,0,0,0,.245-.517v-.041a1.587,1.587,0,0,0-.426-1.183,1.679,1.679,0,0,0-1.227-.419,2.091,2.091,0,0,0-1.339.392,1.931,1.931,0,0,0-.664.926l-2.149-.324a3.74,3.74,0,0,1,.84-1.586,3.686,3.686,0,0,1,1.431-.96,5.229,5.229,0,0,1,1.87-.321,5.756,5.756,0,0,1,1.405.176,3.878,3.878,0,0,1,1.278.578,2.915,2.915,0,0,1,.931,1.092,3.758,3.758,0,0,1,.353,1.724v6.95h-2.213V116.2h-.076a2.954,2.954,0,0,1-.588.808,2.788,2.788,0,0,1-.947.6,3.593,3.593,0,0,1-1.332.226m.6-1.8a2.361,2.361,0,0,0,1.2-.294,2.084,2.084,0,0,0,.786-.781,2.112,2.112,0,0,0,.276-1.061v-1.224a1.049,1.049,0,0,1-.366.175,5.147,5.147,0,0,1-.575.142q-.318.061-.63.108l-.541.081a3.822,3.822,0,0,0-.922.243,1.544,1.544,0,0,0-.642.47,1.218,1.218,0,0,0-.236.774,1.191,1.191,0,0,0,.465,1.021,1.931,1.931,0,0,0,1.182.345" transform="translate(-168.558 -67.301)" fill="#1c262d"/>
    <path id="Path_1993" data-name="Path 1993" d="M296.5,112V98.152h2.3v5.179h.1a4.609,4.609,0,0,1,.5-.808,2.757,2.757,0,0,1,.878-.737,2.885,2.885,0,0,1,1.411-.308,3.589,3.589,0,0,1,2.045.612,4.16,4.16,0,0,1,1.45,1.8,7.11,7.11,0,0,1,.537,2.925,7.189,7.189,0,0,1-.528,2.907,4.218,4.218,0,0,1-1.437,1.826,3.538,3.538,0,0,1-2.06.629,2.918,2.918,0,0,1-1.393-.3,2.8,2.8,0,0,1-.887-.72,4.443,4.443,0,0,1-.518-.8h-.134V112Zm2.258-5.193a5.241,5.241,0,0,0,.27,1.764,2.639,2.639,0,0,0,.782,1.18,2.067,2.067,0,0,0,2.521-.014,2.679,2.679,0,0,0,.779-1.2,5.812,5.812,0,0,0,0-3.452,2.59,2.59,0,0,0-.776-1.176,2.13,2.13,0,0,0-2.537-.013,2.516,2.516,0,0,0-.779,1.156,5.234,5.234,0,0,0-.264,1.751" transform="translate(-186.315 -61.677)" fill="#1c262d"/>
    <path id="Path_1994" data-name="Path 1994" d="M329.133,117.826a4.511,4.511,0,0,1-2.48-.669,4.43,4.43,0,0,1-1.625-1.873,7.18,7.18,0,0,1,0-5.632,4.422,4.422,0,0,1,1.625-1.88,4.929,4.929,0,0,1,4.96,0,4.428,4.428,0,0,1,1.625,1.88,7.18,7.18,0,0,1,0,5.632,4.436,4.436,0,0,1-1.625,1.873,4.511,4.511,0,0,1-2.48.669m.013-1.961a1.9,1.9,0,0,0,1.3-.456,2.745,2.745,0,0,0,.779-1.227,5.4,5.4,0,0,0,.257-1.717,5.453,5.453,0,0,0-.257-1.728,2.766,2.766,0,0,0-.779-1.234,1.889,1.889,0,0,0-1.3-.46,1.928,1.928,0,0,0-1.32.46,2.757,2.757,0,0,0-.782,1.234,5.452,5.452,0,0,0-.258,1.728,5.4,5.4,0,0,0,.258,1.717,2.737,2.737,0,0,0,.782,1.227,1.939,1.939,0,0,0,1.32.456" transform="translate(-203.88 -67.301)" fill="#1c262d"/>
    <path id="Path_1995" data-name="Path 1995" d="M353.893,117.6V107.216h2.232v1.731h.1a2.607,2.607,0,0,1,.919-1.389,2.418,2.418,0,0,1,1.492-.49c.127,0,.27.006.429.017a2.985,2.985,0,0,1,.4.051v2.252a2.406,2.406,0,0,0-.461-.1,4.388,4.388,0,0,0-.608-.044,2.223,2.223,0,0,0-1.129.287,2.074,2.074,0,0,0-.785.794,2.342,2.342,0,0,0-.286,1.17V117.6Z" transform="translate(-222.379 -67.279)" fill="#1c262d"/>
    <path id="Path_1996" data-name="Path 1996" d="M373.974,117.833a3.82,3.82,0,0,1-1.669-.355,2.734,2.734,0,0,1-1.17-1.052,3.214,3.214,0,0,1-.429-1.717,3.079,3.079,0,0,1,.305-1.454,2.452,2.452,0,0,1,.833-.919,4.125,4.125,0,0,1,1.192-.524,9.386,9.386,0,0,1,1.377-.261q.858-.094,1.392-.172a1.941,1.941,0,0,0,.779-.243.58.58,0,0,0,.245-.517v-.041a1.587,1.587,0,0,0-.426-1.183,1.679,1.679,0,0,0-1.227-.419,2.091,2.091,0,0,0-1.339.392,1.931,1.931,0,0,0-.664.926l-2.149-.324a3.74,3.74,0,0,1,.84-1.586,3.686,3.686,0,0,1,1.431-.96,5.229,5.229,0,0,1,1.87-.321,5.756,5.756,0,0,1,1.405.176,3.878,3.878,0,0,1,1.278.578,2.915,2.915,0,0,1,.931,1.092,3.758,3.758,0,0,1,.353,1.724v6.95h-2.213V116.2h-.076a2.954,2.954,0,0,1-.588.808,2.788,2.788,0,0,1-.947.6,3.593,3.593,0,0,1-1.332.226m.6-1.8a2.361,2.361,0,0,0,1.2-.294,2.083,2.083,0,0,0,.786-.781,2.111,2.111,0,0,0,.277-1.061v-1.224a1.049,1.049,0,0,1-.366.175,5.15,5.15,0,0,1-.575.142q-.318.061-.63.108l-.541.081a3.822,3.822,0,0,0-.922.243,1.545,1.545,0,0,0-.642.47,1.218,1.218,0,0,0-.236.774,1.191,1.191,0,0,0,.465,1.021,1.931,1.931,0,0,0,1.182.345" transform="translate(-232.944 -67.301)" fill="#1c262d"/>
    <path id="Path_1997" data-name="Path 1997" d="M401.852,105.153h-5.615V103.26h5.615Zm-4.229-4.381h2.3v9.749a1.6,1.6,0,0,0,.143.754.754.754,0,0,0,.378.355,1.384,1.384,0,0,0,.522.095,2.192,2.192,0,0,0,.4-.034c.121-.023.213-.043.276-.061l.388,1.913a4.95,4.95,0,0,1-.524.149,4.114,4.114,0,0,1-.83.094,3.525,3.525,0,0,1-1.558-.28,2.422,2.422,0,0,1-1.1-.957,2.981,2.981,0,0,1-.4-1.623Z" transform="translate(-248.988 -63.323)" fill="#1c262d"/>
    <path id="Path_1998" data-name="Path 1998" d="M418.029,117.826a4.511,4.511,0,0,1-2.48-.669,4.43,4.43,0,0,1-1.625-1.873,7.18,7.18,0,0,1,0-5.632,4.422,4.422,0,0,1,1.625-1.88,4.93,4.93,0,0,1,4.96,0,4.428,4.428,0,0,1,1.625,1.88,7.18,7.18,0,0,1,0,5.632,4.436,4.436,0,0,1-1.625,1.873,4.511,4.511,0,0,1-2.48.669m.013-1.961a1.9,1.9,0,0,0,1.3-.456,2.745,2.745,0,0,0,.779-1.227,5.4,5.4,0,0,0,.258-1.717,5.452,5.452,0,0,0-.258-1.728,2.766,2.766,0,0,0-.779-1.234,1.889,1.889,0,0,0-1.3-.46,1.928,1.928,0,0,0-1.32.46,2.757,2.757,0,0,0-.782,1.234,5.451,5.451,0,0,0-.258,1.728,5.4,5.4,0,0,0,.258,1.717,2.736,2.736,0,0,0,.782,1.227,1.939,1.939,0,0,0,1.32.456" transform="translate(-259.74 -67.301)" fill="#1c262d"/>
    <path id="Path_1999" data-name="Path 1999" d="M442.789,117.6V107.216h2.232v1.731h.1a2.6,2.6,0,0,1,.919-1.389,2.416,2.416,0,0,1,1.491-.49c.127,0,.27.006.429.017a2.985,2.985,0,0,1,.4.051v2.252a2.4,2.4,0,0,0-.461-.1,4.388,4.388,0,0,0-.608-.044,2.223,2.223,0,0,0-1.129.287,2.074,2.074,0,0,0-.785.794,2.342,2.342,0,0,0-.286,1.17V117.6Z" transform="translate(-278.24 -67.279)" fill="#1c262d"/>
    <path id="Path_2000" data-name="Path 2000" d="M461.641,99.009a1.293,1.293,0,0,1-.941-.389,1.317,1.317,0,0,1,0-1.88,1.334,1.334,0,0,1,2.277.944,1.273,1.273,0,0,1-.391.936,1.29,1.29,0,0,1-.944.389m-1.158,1.473h2.3v10.385h-2.3Z" transform="translate(-289.247 -60.546)" fill="#1c262d"/>
    <path id="Path_2001" data-name="Path 2001" d="M475.88,117.826a4.755,4.755,0,0,1-2.534-.653,4.262,4.262,0,0,1-1.637-1.853,7.23,7.23,0,0,1,0-5.646,4.522,4.522,0,0,1,1.612-1.893,4.341,4.341,0,0,1,2.436-.68,4.743,4.743,0,0,1,1.707.308,3.9,3.9,0,0,1,1.425.95,4.511,4.511,0,0,1,.976,1.633,6.981,6.981,0,0,1,.356,2.356v.751h-8.006v-1.65h5.8a2.777,2.777,0,0,0-.286-1.254,2.175,2.175,0,0,0-.779-.869,2.115,2.115,0,0,0-1.161-.318,2.158,2.158,0,0,0-1.24.362,2.468,2.468,0,0,0-.83.947,2.854,2.854,0,0,0-.3,1.281v1.44a3.537,3.537,0,0,0,.312,1.552,2.28,2.28,0,0,0,.871.987,2.462,2.462,0,0,0,1.31.342,2.582,2.582,0,0,0,.909-.152,1.956,1.956,0,0,0,.706-.449,1.9,1.9,0,0,0,.451-.737l2.149.257a3.639,3.639,0,0,1-.773,1.578,3.759,3.759,0,0,1-1.453,1.041,5.219,5.219,0,0,1-2.022.369" transform="translate(-296.053 -67.301)" fill="#1c262d"/>
    <path id="Path_2002" data-name="Path 2002" d="M506.613,109.983l-2.1.243a1.859,1.859,0,0,0-.308-.635,1.589,1.589,0,0,0-.588-.48,2.018,2.018,0,0,0-.9-.183,2.092,2.092,0,0,0-1.2.331.986.986,0,0,0-.48.859.919.919,0,0,0,.315.737,2.548,2.548,0,0,0,1.065.467l1.666.379a4.126,4.126,0,0,1,2.064,1.007,2.489,2.489,0,0,1,.684,1.805,2.942,2.942,0,0,1-.537,1.727,3.5,3.5,0,0,1-1.472,1.166,5.266,5.266,0,0,1-2.162.42,4.774,4.774,0,0,1-2.887-.8,3.227,3.227,0,0,1-1.3-2.235l2.245-.23a1.691,1.691,0,0,0,.649,1.062,2.151,2.151,0,0,0,1.291.358,2.216,2.216,0,0,0,1.32-.358,1.061,1.061,0,0,0,.5-.886.951.951,0,0,0-.321-.737,2.229,2.229,0,0,0-1-.446l-1.666-.372a3.858,3.858,0,0,1-2.079-1.051,2.655,2.655,0,0,1-.668-1.876,2.781,2.781,0,0,1,.492-1.667,3.242,3.242,0,0,1,1.393-1.1,5.127,5.127,0,0,1,2.064-.389,4.267,4.267,0,0,1,2.706.778,3.308,3.308,0,0,1,1.224,2.1" transform="translate(-313.223 -67.301)" fill="#1c262d"/>
    <path id="Path_2003" data-name="Path 2003" d="M111.862,22.547V17.855q0-6.917-1.159-10.191a10.526,10.526,0,0,0-4.851-5.469A18.1,18.1,0,0,0,96.485,0a18.187,18.187,0,0,0-7.4,1.419,12.164,12.164,0,0,0-5.034,3.89A11.209,11.209,0,0,0,81.87,10.45a64.158,64.158,0,0,0-.366,8.009V32.89q0,7.262,1.19,10.877a9.939,9.939,0,0,0,4.851,5.66,18.935,18.935,0,0,0,9.306,2.044,16.4,16.4,0,0,0,9.138-2.414,11.114,11.114,0,0,0,4.79-5.622q1.083-3.208,1.083-10.877V30.633H99.017v6.209a17.977,17.977,0,0,1-.442,5.169,1.806,1.806,0,0,1-1.876,1.1,1.827,1.827,0,0,1-1.922-1.1,15.306,15.306,0,0,1-.426-4.476h1.52a1.018,1.018,0,1,0,0-2.036H94.349V30.675H95.7a1.018,1.018,0,1,0,0-2.037H94.349V23.813h1.434a1.019,1.019,0,1,0,0-2.037H94.349V16.951h1.259a1.019,1.019,0,0,0,0-2.037H94.349v-.543q0-2.037.126-3.3h-.381a1.358,1.358,0,1,1,0-2.716h5.462a1.358,1.358,0,0,1,0,2.716h-.63c.061.758.091,1.719.091,2.89v8.586Z" transform="translate(-51.216)" fill="#1b4acc"/>
  </g>
</svg>
